<?xml version="1.0" encoding="UTF-8"?>
<svg width="68px" height="52px" viewBox="0 0 68 52" version="1.1" xmlns="http://www.w3.org/2000/svg" xmlns:xlink="http://www.w3.org/1999/xlink">
    <!-- Generator: Sketch 52.6 (67491) - http://www.bohemiancoding.com/sketch -->
    <title>Bio Copy</title>
    <desc>Created with Sketch.</desc>
    <defs>
        <polygon id="path-1" points="0.0153 0.1825 52.545 0.1825 52.545 5 0.0153 5"></polygon>
        <polygon id="path-3" points="0 50.2634 52.545 50.2634 52.545 0.0004 0 0.0004"></polygon>
    </defs>
    <g id="Bio-Copy" stroke="none" stroke-width="1" fill="none" fill-rule="evenodd">
        <g id="Group-34" transform="translate(8.000000, 0.000000)">
            <g id="Group-3" transform="translate(0.000000, 45.263400)">
                <mask id="mask-2" fill="white">
                    <use xlink:href="#path-1"></use>
                </mask>
                <g id="Clip-2"></g>
                <path d="M2.7053,4.7935 L1.7113,0.4925 L1.0323,0.4925 L0.0153,4.7935 L0.5353,4.7935 L0.7693,3.7855 L1.9403,3.7855 L2.1683,4.7935 L2.7053,4.7935 Z M1.8713,3.3535 L0.8383,3.3535 L1.3523,1.0025 L1.3743,1.0025 L1.8713,3.3535 Z M3.6963,0.5595 C3.5193,0.6725 3.3693,0.8295 3.2483,1.0305 C3.1263,1.2305 3.0323,1.4675 2.9683,1.7405 C2.9033,2.0145 2.8713,2.3125 2.8713,2.6365 C2.8713,2.9735 2.9043,3.2785 2.9713,3.5545 C3.0373,3.8295 3.1343,4.0645 3.2623,4.2585 C3.3893,4.4535 3.5443,4.6045 3.7273,4.7115 C3.9103,4.8185 4.1173,4.8725 4.3503,4.8725 C4.5783,4.8725 4.7713,4.8415 4.9293,4.7785 C5.0873,4.7155 5.2253,4.6315 5.3433,4.5265 L5.3433,2.4305 L4.3153,2.4305 L4.3153,2.9045 L4.8463,2.9045 L4.8463,4.2345 C4.7363,4.3315 4.5743,4.3805 4.3613,4.3805 C4.2013,4.3805 4.0623,4.3355 3.9443,4.2465 C3.8263,4.1575 3.7283,4.0355 3.6503,3.8795 C3.5723,3.7235 3.5133,3.5395 3.4733,3.3265 C3.4333,3.1135 3.4133,2.8835 3.4133,2.6365 C3.4133,2.4025 3.4313,2.1785 3.4673,1.9655 C3.5033,1.7525 3.5603,1.5665 3.6363,1.4065 C3.7123,1.2465 3.8063,1.1205 3.9183,1.0265 C4.0313,0.9335 4.1653,0.8875 4.3213,0.8875 C4.4503,0.8875 4.5703,0.9195 4.6813,0.9845 C4.7913,1.0495 4.8883,1.1465 4.9723,1.2765 L5.2923,0.9055 C5.1813,0.7315 5.0423,0.6015 4.8753,0.5165 C4.7073,0.4315 4.5153,0.3895 4.2983,0.3895 C4.0743,0.3895 3.8733,0.4455 3.6963,0.5595 Z M8.2333,4.7935 L7.4733,2.7705 C7.5493,2.7545 7.6283,2.7195 7.7083,2.6675 C7.7893,2.6145 7.8633,2.5425 7.9303,2.4515 C7.9983,2.3605 8.0523,2.2505 8.0953,2.1205 C8.1373,1.9905 8.1583,1.8395 8.1583,1.6645 C8.1583,1.4545 8.1303,1.2745 8.0733,1.1245 C8.0153,0.9745 7.9373,0.8525 7.8383,0.7595 C7.7393,0.6665 7.6233,0.5985 7.4913,0.5565 C7.3603,0.5135 7.2193,0.4925 7.0703,0.4925 L6.0233,0.4925 L6.0233,4.7935 L6.5253,4.7935 L6.5253,2.8735 L6.9933,2.8735 L7.6793,4.7935 L8.2333,4.7935 Z M7.4673,2.2505 C7.3493,2.3825 7.1933,2.4485 6.9993,2.4485 L6.5253,2.4485 L6.5253,0.9485 L6.9883,0.9485 C7.0683,0.9485 7.1483,0.9595 7.2283,0.9815 C7.3083,1.0045 7.3783,1.0435 7.4393,1.1005 C7.5003,1.1575 7.5493,1.2325 7.5873,1.3265 C7.6253,1.4195 7.6443,1.5395 7.6443,1.6865 C7.6443,1.9305 7.5853,2.1185 7.4673,2.2505 Z M8.7183,4.7935 L9.2323,4.7935 L9.2323,0.4925 L8.7183,0.4925 L8.7183,4.7935 Z M12.2413,4.3315 L11.9333,3.9735 C11.8683,4.0905 11.7823,4.1905 11.6733,4.2715 C11.5653,4.3525 11.4403,4.3925 11.2993,4.3925 C11.1433,4.3925 11.0073,4.3465 10.8913,4.2525 C10.7753,4.1595 10.6783,4.0335 10.6023,3.8735 C10.5263,3.7135 10.4693,3.5275 10.4313,3.3175 C10.3933,3.1065 10.3743,2.8815 10.3743,2.6425 C10.3743,2.4045 10.3933,2.1785 10.4313,1.9655 C10.4693,1.7525 10.5253,1.5675 10.6003,1.4095 C10.6743,1.2515 10.7683,1.1265 10.8823,1.0335 C10.9963,0.9395 11.1313,0.8935 11.2883,0.8935 C11.4133,0.8935 11.5313,0.9245 11.6423,0.9875 C11.7523,1.0505 11.8493,1.1465 11.9333,1.2765 L12.2533,0.9055 C12.1423,0.7315 12.0013,0.6015 11.8303,0.5165 C11.6593,0.4315 11.4703,0.3895 11.2653,0.3895 C11.0443,0.3895 10.8453,0.4455 10.6683,0.5595 C10.4913,0.6725 10.3413,0.8295 10.2173,1.0305 C10.0933,1.2305 9.9983,1.4685 9.9313,1.7435 C9.8653,2.0195 9.8313,2.3185 9.8313,2.6425 C9.8313,2.9675 9.8643,3.2655 9.9293,3.5395 C9.9933,3.8125 10.0863,4.0505 10.2083,4.2525 C10.3303,4.4555 10.4803,4.6135 10.6593,4.7265 C10.8383,4.8405 11.0403,4.8965 11.2653,4.8965 C11.4933,4.8965 11.6873,4.8455 11.8473,4.7415 C12.0073,4.6385 12.1383,4.5015 12.2413,4.3315 Z M15.0173,3.3175 L15.0173,0.4925 L14.5033,0.4925 L14.5033,3.2625 C14.5033,3.4085 14.4923,3.5495 14.4713,3.6845 C14.4503,3.8205 14.4143,3.9415 14.3633,4.0465 C14.3113,4.1515 14.2423,4.2355 14.1543,4.2985 C14.0673,4.3615 13.9543,4.3925 13.8173,4.3925 C13.6803,4.3925 13.5673,4.3615 13.4783,4.2985 C13.3883,4.2355 13.3183,4.1515 13.2663,4.0465 C13.2153,3.9415 13.1793,3.8205 13.1583,3.6845 C13.1373,3.5495 13.1263,3.4085 13.1263,3.2625 L13.1263,0.4925 L12.6123,0.4925 L12.6123,3.3175 C12.6123,3.5355 12.6323,3.7405 12.6723,3.9305 C12.7123,4.1215 12.7803,4.2885 12.8753,4.4325 C12.9703,4.5755 13.0933,4.6895 13.2433,4.7725 C13.3943,4.8555 13.5813,4.8965 13.8063,4.8965 C14.0303,4.8965 14.2203,4.8555 14.3743,4.7725 C14.5283,4.6895 14.6533,4.5755 14.7483,4.4325 C14.8433,4.2885 14.9123,4.1215 14.9543,3.9305 C14.9963,3.7405 15.0173,3.5355 15.0173,3.3175 Z M17.3923,4.7935 L17.3923,4.2835 L16.2503,4.2835 L16.2503,0.4925 L15.7363,0.4925 L15.7363,4.7935 L17.3923,4.7935 Z M19.2253,0.9605 L19.2253,0.4925 L17.1693,0.4925 L17.1693,0.9605 L17.9403,0.9605 L17.9403,4.7935 L18.4543,4.7935 L18.4543,0.9605 L19.2253,0.9605 Z M21.8983,3.3175 L21.8983,0.4925 L21.3843,0.4925 L21.3843,3.2625 C21.3843,3.4085 21.3733,3.5495 21.3523,3.6845 C21.3313,3.8205 21.2953,3.9415 21.2443,4.0465 C21.1923,4.1515 21.1233,4.2355 21.0353,4.2985 C20.9483,4.3615 20.8353,4.3925 20.6983,4.3925 C20.5613,4.3925 20.4483,4.3615 20.3593,4.2985 C20.2693,4.2355 20.1993,4.1515 20.1473,4.0465 C20.0963,3.9415 20.0603,3.8205 20.0393,3.6845 C20.0183,3.5495 20.0073,3.4085 20.0073,3.2625 L20.0073,0.4925 L19.4933,0.4925 L19.4933,3.3175 C19.4933,3.5355 19.5133,3.7405 19.5533,3.9305 C19.5933,4.1215 19.6613,4.2885 19.7563,4.4325 C19.8513,4.5755 19.9743,4.6895 20.1243,4.7725 C20.2753,4.8555 20.4623,4.8965 20.6873,4.8965 C20.9123,4.8965 21.1013,4.8555 21.2553,4.7725 C21.4093,4.6895 21.5343,4.5755 21.6293,4.4325 C21.7243,4.2885 21.7933,4.1215 21.8353,3.9305 C21.8773,3.7405 21.8983,3.5355 21.8983,3.3175 Z M24.8273,4.7935 L24.0683,2.7705 C24.1443,2.7545 24.2223,2.7195 24.3033,2.6675 C24.3833,2.6145 24.4573,2.5425 24.5243,2.4515 C24.5923,2.3605 24.6473,2.2505 24.6893,2.1205 C24.7323,1.9905 24.7533,1.8395 24.7533,1.6645 C24.7533,1.4545 24.7243,1.2745 24.6673,1.1245 C24.6103,0.9745 24.5313,0.8525 24.4323,0.7595 C24.3333,0.6665 24.2173,0.5985 24.0863,0.5565 C23.9543,0.5135 23.8143,0.4925 23.6653,0.4925 L22.6173,0.4925 L22.6173,4.7935 L23.1203,4.7935 L23.1203,2.8735 L23.5883,2.8735 L24.2733,4.7935 L24.8273,4.7935 Z M24.0623,2.2505 C23.9443,2.3825 23.7883,2.4485 23.5943,2.4485 L23.1203,2.4485 L23.1203,0.9485 L23.5823,0.9485 C23.6623,0.9485 23.7423,0.9595 23.8223,0.9815 C23.9023,1.0045 23.9723,1.0435 24.0333,1.1005 C24.0943,1.1575 24.1443,1.2325 24.1823,1.3265 C24.2203,1.4195 24.2393,1.5395 24.2393,1.6865 C24.2393,1.9305 24.1803,2.1185 24.0623,2.2505 Z M27.0713,4.7935 L27.0713,4.3015 L25.8093,4.3015 L25.8093,2.7885 L26.9343,2.7885 L26.9343,2.3335 L25.8093,2.3335 L25.8093,0.9785 L27.0143,0.9785 L27.0143,0.4925 L25.3123,0.4925 L25.3123,4.7935 L27.0713,4.7935 Z M30.9483,3.3175 L30.9483,0.4925 L30.4353,0.4925 L30.4353,3.2625 C30.4353,3.4085 30.4243,3.5495 30.4033,3.6845 C30.3823,3.8205 30.3463,3.9415 30.2953,4.0465 C30.2433,4.1515 30.1743,4.2355 30.0863,4.2985 C29.9993,4.3615 29.8863,4.3925 29.7493,4.3925 C29.6123,4.3925 29.4993,4.3615 29.4093,4.2985 C29.3203,4.2355 29.2503,4.1515 29.1983,4.0465 C29.1473,3.9415 29.1113,3.8205 29.0903,3.6845 C29.0693,3.5495 29.0583,3.4085 29.0583,3.2625 L29.0583,0.4925 L28.5443,0.4925 L28.5443,3.3175 C28.5443,3.5355 28.5643,3.7405 28.6043,3.9305 C28.6443,4.1215 28.7123,4.2885 28.8073,4.4325 C28.9023,4.5755 29.0253,4.6895 29.1753,4.7725 C29.3263,4.8555 29.5133,4.8965 29.7383,4.8965 C29.9623,4.8965 30.1523,4.8555 30.3063,4.7725 C30.4603,4.6895 30.5853,4.5755 30.6803,4.4325 C30.7753,4.2885 30.8443,4.1215 30.8863,3.9305 C30.9283,3.7405 30.9483,3.5355 30.9483,3.3175 Z M33.4273,4.7935 L33.4273,4.3015 L32.1653,4.3015 L32.1653,2.7885 L33.2903,2.7885 L33.2903,2.3335 L32.1653,2.3335 L32.1653,0.9785 L33.3703,0.9785 L33.3703,0.4925 L31.6683,0.4925 L31.6683,4.7935 L33.4273,4.7935 Z M35.8993,0.2555 L35.5743,0.1825 L34.5463,4.9275 L34.8773,5.0005 L35.8993,0.2555 Z M39.6223,4.7935 L39.6223,0.4925 L39.1483,0.4925 L39.1483,3.8335 L39.1313,3.8335 L37.8583,0.4925 L37.2413,0.4925 L37.2413,4.7935 L37.7153,4.7935 L37.7153,1.4585 L37.7323,1.4585 L39.0233,4.7935 L39.6223,4.7935 Z M42.8973,1.7165 C42.8353,1.4395 42.7433,1.2025 42.6233,1.0055 C42.5033,0.8095 42.3593,0.6575 42.1893,0.5505 C42.0203,0.4425 41.8273,0.3895 41.6103,0.3895 C41.3893,0.3895 41.1923,0.4425 41.0193,0.5505 C40.8453,0.6575 40.7003,0.8095 40.5823,1.0055 C40.4643,1.2025 40.3743,1.4395 40.3133,1.7165 C40.2523,1.9935 40.2223,2.3005 40.2223,2.6365 C40.2223,2.9735 40.2533,3.2795 40.3163,3.5575 C40.3793,3.8345 40.4703,4.0725 40.5903,4.2715 C40.7103,4.4695 40.8563,4.6235 41.0273,4.7325 C41.1993,4.8425 41.3933,4.8965 41.6103,4.8965 C41.8273,4.8965 42.0203,4.8425 42.1893,4.7325 C42.3593,4.6235 42.5033,4.4695 42.6233,4.2715 C42.7433,4.0725 42.8353,3.8345 42.8973,3.5575 C42.9603,3.2795 42.9923,2.9735 42.9923,2.6365 C42.9923,2.3005 42.9603,1.9935 42.8973,1.7165 Z M42.3953,3.3235 C42.3593,3.5385 42.3053,3.7245 42.2353,3.8825 C42.1653,4.0405 42.0773,4.1645 41.9723,4.2555 C41.8683,4.3465 41.7473,4.3925 41.6103,4.3925 C41.4693,4.3925 41.3453,4.3465 41.2393,4.2555 C41.1323,4.1645 41.0433,4.0405 40.9733,3.8825 C40.9023,3.7245 40.8503,3.5385 40.8163,3.3235 C40.7823,3.1085 40.7653,2.8795 40.7653,2.6365 C40.7653,2.3935 40.7823,2.1655 40.8163,1.9505 C40.8503,1.7355 40.9023,1.5495 40.9733,1.3915 C41.0433,1.2335 41.1323,1.1095 41.2393,1.0175 C41.3453,0.9265 41.4693,0.8815 41.6103,0.8815 C41.7473,0.8815 41.8683,0.9265 41.9723,1.0175 C42.0773,1.1095 42.1653,1.2335 42.2353,1.3915 C42.3053,1.5495 42.3593,1.7355 42.3953,1.9505 C42.4313,2.1655 42.4493,2.3935 42.4493,2.6365 C42.4493,2.8795 42.4313,3.1085 42.3953,3.3235 Z M45.9723,4.7935 L45.9723,0.4925 L45.4993,0.4925 L45.4993,3.8335 L45.4813,3.8335 L44.2083,0.4925 L43.5913,0.4925 L43.5913,4.7935 L44.0653,4.7935 L44.0653,1.4585 L44.0823,1.4585 L45.3733,4.7935 L45.9723,4.7935 Z M50.0673,3.3175 L50.0673,0.4925 L49.5533,0.4925 L49.5533,3.2625 C49.5533,3.4085 49.5423,3.5495 49.5213,3.6845 C49.5003,3.8205 49.4643,3.9415 49.4133,4.0465 C49.3623,4.1515 49.2923,4.2355 49.2053,4.2985 C49.1173,4.3615 49.0053,4.3925 48.8683,4.3925 C48.7313,4.3925 48.6173,4.3615 48.5283,4.2985 C48.4383,4.2355 48.3683,4.1515 48.3173,4.0465 C48.2653,3.9415 48.2293,3.8205 48.2083,3.6845 C48.1873,3.5495 48.1773,3.4085 48.1773,3.2625 L48.1773,0.4925 L47.6633,0.4925 L47.6633,3.3175 C47.6633,3.5355 47.6833,3.7405 47.7233,3.9305 C47.7633,4.1215 47.8303,4.2885 47.9253,4.4325 C48.0203,4.5755 48.1433,4.6895 48.2943,4.7725 C48.4443,4.8555 48.6313,4.8965 48.8563,4.8965 C49.0813,4.8965 49.2703,4.8555 49.4243,4.7725 C49.5793,4.6895 49.7033,4.5755 49.7983,4.4325 C49.8943,4.2885 49.9623,4.1215 50.0043,3.9305 C50.0463,3.7405 50.0673,3.5355 50.0673,3.3175 Z M52.5453,4.7935 L52.5453,4.3015 L51.2833,4.3015 L51.2833,2.7885 L52.4083,2.7885 L52.4083,2.3335 L51.2833,2.3335 L51.2833,0.9785 L52.4883,0.9785 L52.4883,0.4925 L50.7863,0.4925 L50.7863,4.7935 L52.5453,4.7935 Z" id="Fill-1" fill="#1D1D1B" mask="url(#mask-2)"></path>
            </g>
            <path d="M2.7281,42.3051 L2.3341,41.8131 C2.2691,41.9181 2.1881,42.0071 2.0911,42.0801 C1.9941,42.1531 1.8791,42.1901 1.7461,42.1901 C1.6051,42.1901 1.4821,42.1481 1.3771,42.0651 C1.2731,41.9821 1.1861,41.8701 1.1181,41.7281 C1.0491,41.5861 0.9981,41.4191 0.9631,41.2271 C0.9291,41.0341 0.9121,40.8311 0.9121,40.6161 C0.9121,40.3971 0.9291,40.1921 0.9631,40.0001 C0.9981,39.8071 1.0491,39.6401 1.1181,39.4981 C1.1861,39.3571 1.2721,39.2441 1.3751,39.1611 C1.4771,39.0781 1.5971,39.0371 1.7341,39.0371 C1.9821,39.0371 2.1841,39.1561 2.3401,39.3951 L2.7341,38.8851 C2.6231,38.7151 2.4801,38.5841 2.3051,38.4931 C2.1301,38.4021 1.9271,38.3561 1.6941,38.3561 C1.4701,38.3561 1.2651,38.4121 1.0811,38.5231 C0.8961,38.6351 0.7391,38.7911 0.6091,38.9911 C0.4801,39.1921 0.3801,39.4311 0.3101,39.7081 C0.2391,39.9851 0.2041,40.2881 0.2041,40.6161 C0.2041,40.9441 0.2391,41.2461 0.3101,41.5211 C0.3801,41.7971 0.4791,42.0351 0.6071,42.2351 C0.7341,42.4361 0.8901,42.5931 1.0751,42.7061 C1.2591,42.8191 1.4661,42.8761 1.6941,42.8761 C1.9461,42.8761 2.1541,42.8231 2.3201,42.7181 C2.4851,42.6131 2.6211,42.4751 2.7281,42.3051 Z M5.1381,42.7671 L5.1381,42.1171 L3.9271,42.1171 L3.9271,40.8471 L4.9951,40.8471 L4.9951,40.2521 L3.9271,40.2521 L3.9271,39.1101 L5.0811,39.1101 L5.0811,38.4661 L3.2701,38.4661 L3.2701,42.7671 L5.1381,42.7671 Z M8.2101,42.7671 L7.4851,40.7861 C7.5571,40.7661 7.6301,40.7291 7.7051,40.6741 C7.7791,40.6191 7.8461,40.5471 7.9071,40.4581 C7.9681,40.3691 8.0191,40.2611 8.0591,40.1331 C8.0991,40.0061 8.1191,39.8591 8.1191,39.6931 C8.1191,39.4781 8.0901,39.2941 8.0331,39.1401 C7.9761,38.9861 7.8971,38.8581 7.7961,38.7571 C7.6951,38.6561 7.5741,38.5821 7.4331,38.5351 C7.2921,38.4891 7.1381,38.4661 6.9711,38.4661 L5.8171,38.4661 L5.8171,42.7671 L6.4801,42.7671 L6.4801,40.9321 L6.8621,40.9321 L7.4901,42.7671 L8.2101,42.7671 Z M7.2821,40.2301 C7.1731,40.3421 7.0351,40.3971 6.8681,40.3971 L6.4801,40.3971 L6.4801,39.0731 L6.8681,39.0731 C6.9361,39.0731 7.0051,39.0831 7.0741,39.1031 C7.1421,39.1241 7.2041,39.1581 7.2591,39.2071 C7.3141,39.2551 7.3591,39.3221 7.3931,39.4071 C7.4281,39.4921 7.4451,39.6001 7.4451,39.7291 C7.4451,39.9521 7.3901,40.1191 7.2821,40.2301 Z M10.5401,39.0851 L10.5401,38.4661 L8.3471,38.4661 L8.3471,39.0851 L9.1061,39.0851 L9.1061,42.7671 L9.7801,42.7671 L9.7801,39.0851 L10.5401,39.0851 Z M10.9971,42.7671 L11.6821,42.7671 L11.6821,38.4661 L10.9971,38.4661 L10.9971,42.7671 Z M14.3711,39.1221 L14.3711,38.4661 L12.5611,38.4661 L12.5611,42.7671 L13.2521,42.7671 L13.2521,40.9201 L14.2861,40.9201 L14.2861,40.3001 L13.2461,40.3001 L13.2461,39.1221 L14.3711,39.1221 Z M15.0001,42.7671 L15.6851,42.7671 L15.6851,38.4661 L15.0001,38.4661 L15.0001,42.7671 Z M18.4311,42.7671 L18.4311,42.1171 L17.2211,42.1171 L17.2211,40.8471 L18.2891,40.8471 L18.2891,40.2521 L17.2211,40.2521 L17.2211,39.1101 L18.3741,39.1101 L18.3741,38.4661 L16.5641,38.4661 L16.5641,42.7671 L18.4311,42.7671 Z M18.2831,37.2511 L17.6891,37.2511 L17.1751,38.1251 L17.6601,38.1251 L18.2831,37.2511 Z M22.0921,39.1221 L22.0921,38.4661 L20.2811,38.4661 L20.2811,42.7671 L20.9721,42.7671 L20.9721,40.9201 L22.0061,40.9201 L22.0061,40.3001 L20.9671,40.3001 L20.9671,39.1221 L22.0921,39.1221 Z M25.1131,42.7671 L24.3871,40.7861 C24.4601,40.7661 24.5331,40.7291 24.6071,40.6741 C24.6811,40.6191 24.7491,40.5471 24.8101,40.4581 C24.8711,40.3691 24.9211,40.2611 24.9611,40.1331 C25.0011,40.0061 25.0211,39.8591 25.0211,39.6931 C25.0211,39.4781 24.9931,39.2941 24.9351,39.1401 C24.8781,38.9861 24.7991,38.8581 24.6991,38.7571 C24.5981,38.6561 24.4771,38.5821 24.3361,38.5351 C24.1951,38.4891 24.0411,38.4661 23.8731,38.4661 L22.7201,38.4661 L22.7201,42.7671 L23.3821,42.7671 L23.3821,40.9321 L23.7651,40.9321 L24.3931,42.7671 L25.1131,42.7671 Z M24.1851,40.2301 C24.0761,40.3421 23.9381,40.3971 23.7711,40.3971 L23.3821,40.3971 L23.3821,39.0731 L23.7711,39.0731 C23.8391,39.0731 23.9081,39.0831 23.9761,39.1031 C24.0451,39.1241 24.1061,39.1581 24.1621,39.2071 C24.2171,39.2551 24.2621,39.3221 24.2961,39.4071 C24.3301,39.4921 24.3471,39.6001 24.3471,39.7291 C24.3471,39.9521 24.2931,40.1191 24.1851,40.2301 Z M25.4841,41.4001 L26.4661,41.4001 L26.4661,40.8651 L25.4841,40.8651 L25.4841,41.4001 Z M29.3951,41.1361 C29.3531,41.0121 29.3001,40.9071 29.2351,40.8201 C29.1711,40.7331 29.0991,40.6651 29.0211,40.6161 C28.9431,40.5681 28.8661,40.5331 28.7901,40.5131 L28.7901,40.5011 C28.9311,40.4401 29.0541,40.3331 29.1611,40.1791 C29.2681,40.0251 29.3211,39.8141 29.3211,39.5471 C29.3211,39.3241 29.2851,39.1431 29.2131,39.0031 C29.1401,38.8641 29.0491,38.7541 28.9381,38.6751 C28.8281,38.5961 28.7061,38.5421 28.5731,38.5111 C28.4401,38.4811 28.3141,38.4661 28.1961,38.4661 L27.1221,38.4661 L27.1221,42.7671 L28.3221,42.7671 C28.4511,42.7671 28.5831,42.7461 28.7191,42.7061 C28.8541,42.6661 28.9761,42.5981 29.0841,42.5021 C29.1931,42.4071 29.2821,42.2841 29.3521,42.1321 C29.4231,41.9801 29.4581,41.7911 29.4581,41.5641 C29.4581,41.4021 29.4371,41.2591 29.3951,41.1361 Z M28.6561,39.9421 C28.6241,40.0191 28.5821,40.0821 28.5311,40.1301 C28.4801,40.1791 28.4211,40.2141 28.3551,40.2361 C28.2891,40.2591 28.2221,40.2701 28.1541,40.2701 L27.7681,40.2701 L27.7681,39.0731 L28.1421,39.0731 C28.2141,39.0731 28.2841,39.0831 28.3521,39.1031 C28.4201,39.1241 28.4801,39.1571 28.5311,39.2041 C28.5821,39.2501 28.6241,39.3111 28.6561,39.3861 C28.6881,39.4611 28.7041,39.5531 28.7041,39.6621 C28.7041,39.7721 28.6881,39.8651 28.6561,39.9421 Z M28.7531,41.7951 C28.7211,41.8761 28.6771,41.9441 28.6221,41.9981 C28.5671,42.0531 28.5041,42.0931 28.4321,42.1201 C28.3601,42.1461 28.2831,42.1591 28.1991,42.1591 L27.7681,42.1591 L27.7681,40.8171 L28.1821,40.8171 C28.2541,40.8171 28.3261,40.8291 28.3981,40.8531 C28.4701,40.8771 28.5361,40.9171 28.5971,40.9721 C28.6571,41.0261 28.7071,41.0971 28.7451,41.1841 C28.7821,41.2711 28.8011,41.3781 28.8011,41.5031 C28.8011,41.6171 28.7851,41.7141 28.7531,41.7951 Z M30.1441,42.7671 L30.8291,42.7671 L30.8291,38.4661 L30.1441,38.4661 L30.1441,42.7671 Z M34.3431,39.6871 C34.2771,39.4111 34.1811,39.1741 34.0551,38.9761 C33.9291,38.7781 33.7761,38.6251 33.5951,38.5171 C33.4141,38.4101 33.2121,38.3561 32.9871,38.3561 C32.7591,38.3561 32.5541,38.4101 32.3731,38.5171 C32.1921,38.6251 32.0391,38.7781 31.9141,38.9761 C31.7881,39.1741 31.6931,39.4111 31.6281,39.6871 C31.5631,39.9621 31.5311,40.2701 31.5311,40.6101 C31.5311,40.9501 31.5641,41.2591 31.6311,41.5371 C31.6971,41.8141 31.7941,42.0521 31.9191,42.2501 C32.0451,42.4491 32.1971,42.6031 32.3761,42.7121 C32.5551,42.8211 32.7591,42.8761 32.9871,42.8761 C33.2121,42.8761 33.4141,42.8211 33.5951,42.7121 C33.7761,42.6031 33.9291,42.4491 34.0551,42.2501 C34.1811,42.0521 34.2771,41.8141 34.3431,41.5371 C34.4101,41.2591 34.4431,40.9501 34.4431,40.6101 C34.4431,40.2701 34.4101,39.9621 34.3431,39.6871 Z M33.6891,41.2271 C33.6591,41.4191 33.6121,41.5861 33.5501,41.7281 C33.4871,41.8701 33.4091,41.9811 33.3151,42.0621 C33.2221,42.1431 33.1131,42.1841 32.9871,42.1841 C32.8611,42.1841 32.7521,42.1431 32.6591,42.0621 C32.5651,41.9811 32.4871,41.8701 32.4251,41.7281 C32.3621,41.5861 32.3151,41.4191 32.2851,41.2271 C32.2541,41.0341 32.2391,40.8291 32.2391,40.6101 C32.2391,40.3911 32.2541,40.1861 32.2851,39.9931 C32.3151,39.8011 32.3621,39.6351 32.4251,39.4951 C32.4871,39.3561 32.5651,39.2451 32.6591,39.1641 C32.7521,39.0831 32.8611,39.0431 32.9871,39.0431 C33.1091,39.0431 33.2161,39.0831 33.3101,39.1641 C33.4031,39.2451 33.4811,39.3561 33.5441,39.4951 C33.6071,39.6351 33.6541,39.8011 33.6871,39.9931 C33.7191,40.1861 33.7351,40.3911 33.7351,40.6101 C33.7351,40.8291 33.7201,41.0341 33.6891,41.2271 Z M34.9171,41.4001 L35.8991,41.4001 L35.8991,40.8651 L34.9171,40.8651 L34.9171,41.4001 Z M38.7461,39.8511 C38.7141,39.5871 38.6531,39.3461 38.5631,39.1281 C38.4741,38.9091 38.3491,38.7301 38.1891,38.5901 C38.0291,38.4501 37.8241,38.3811 37.5721,38.3811 C37.3211,38.3811 37.1171,38.4501 36.9591,38.5901 C36.8011,38.7301 36.6761,38.9091 36.5851,39.1281 C36.4931,39.3461 36.4311,39.5871 36.3991,39.8511 C36.3671,40.1141 36.3501,40.3691 36.3501,40.6161 C36.3501,40.8631 36.3671,41.1181 36.3991,41.3821 C36.4311,41.6451 36.4931,41.8861 36.5851,42.1051 C36.6761,42.3231 36.8011,42.5021 36.9591,42.6421 C37.1171,42.7821 37.3211,42.8521 37.5721,42.8521 C37.8241,42.8521 38.0291,42.7821 38.1891,42.6421 C38.3491,42.5021 38.4741,42.3231 38.5631,42.1051 C38.6531,41.8861 38.7141,41.6451 38.7461,41.3821 C38.7781,41.1181 38.7951,40.8631 38.7951,40.6161 C38.7951,40.3691 38.7781,40.1141 38.7461,39.8511 Z M38.0861,41.1111 C38.0751,41.2961 38.0511,41.4691 38.0151,41.6311 C37.9791,41.7931 37.9261,41.9281 37.8551,42.0381 C37.7851,42.1471 37.6901,42.2021 37.5721,42.2021 C37.4541,42.2021 37.3601,42.1471 37.2901,42.0381 C37.2191,41.9281 37.1661,41.7931 37.1301,41.6311 C37.0941,41.4691 37.0701,41.2961 37.0591,41.1111 C37.0471,40.9271 37.0411,40.7621 37.0411,40.6161 C37.0411,40.4701 37.0471,40.3051 37.0591,40.1211 C37.0701,39.9371 37.0941,39.7651 37.1301,39.6051 C37.1661,39.4451 37.2191,39.3091 37.2901,39.1981 C37.3601,39.0861 37.4541,39.0311 37.5721,39.0311 C37.6901,39.0311 37.7851,39.0861 37.8551,39.1981 C37.9261,39.3091 37.9791,39.4451 38.0151,39.6051 C38.0511,39.7651 38.0751,39.9371 38.0861,40.1211 C38.0981,40.3051 38.1041,40.4701 38.1041,40.6161 C38.1041,40.7621 38.0981,40.9271 38.0861,41.1111 Z M41.0441,42.7671 L41.0441,38.4661 L40.4331,38.4661 L39.3941,39.2861 L39.7021,39.8511 L40.3761,39.3101 L40.3761,42.7671 L41.0441,42.7671 Z" id="Fill-4" fill="#1D1D1B"></path>
            <path d="M30.7024,14.2656 C30.6954,14.2166 30.6874,14.1676 30.6804,14.1186 C30.5384,14.1186 30.3894,14.0906 30.2564,14.1236 C29.3814,14.3396 28.5044,14.5496 27.6384,14.7986 C23.5804,15.9676 19.8774,17.8846 16.4044,20.2536 C14.9904,21.2186 13.6474,22.2876 12.2724,23.3106 C11.8684,23.6116 11.8104,23.5946 11.6294,23.1266 C11.5084,22.8116 11.3824,22.4996 11.2584,22.1866 C11.2174,22.1896 11.1764,22.1926 11.1354,22.1946 C11.0714,22.3176 10.9894,22.4346 10.9464,22.5646 C10.8444,22.8716 10.7424,23.1796 10.6754,23.4946 C10.5534,24.0676 10.2744,24.5066 9.7434,24.7896 C9.4594,24.9416 9.2024,25.1446 8.9444,25.3406 C8.8584,25.4066 8.8114,25.5236 8.7464,25.6166 C8.8454,25.6776 8.9364,25.7686 9.0424,25.7926 C9.9124,25.9896 9.9144,25.9866 9.6864,26.8436 C9.6314,27.0526 9.5594,27.2556 9.5054,27.4646 C9.4844,27.5456 9.4924,27.6336 9.4874,27.7186 C9.5214,27.7426 9.5564,27.7676 9.5904,27.7926 C9.8504,27.5356 10.1584,27.3126 10.3614,27.0166 C10.8454,26.3086 11.4464,26.0896 12.2534,26.3936 C12.3814,26.4426 12.5524,26.3776 12.7034,26.3656 C12.6864,26.2256 12.6974,26.0746 12.6484,25.9466 C12.1264,24.5906 12.2434,24.8626 13.0894,24.0286 C15.6274,21.5276 18.5354,19.5196 21.6304,17.7896 C24.3394,16.2746 27.2634,15.2786 30.2454,14.4486 C30.4024,14.4046 30.5504,14.3276 30.7024,14.2656 M17.3644,23.6796 C17.3514,23.7366 17.3384,23.7946 17.3254,23.8526 C17.6154,24.0356 17.9014,24.2246 18.1954,24.4006 C18.4594,24.5606 18.5304,24.7686 18.4034,25.0506 C18.3324,25.2106 18.2694,25.3746 18.2084,25.5386 C18.1144,25.7936 18.0254,26.0506 17.9084,26.3796 C18.0864,26.3406 18.1744,26.3456 18.2284,26.3056 C18.5524,26.0626 18.8734,25.8156 19.1854,25.5586 C19.3954,25.3846 19.5844,25.3746 19.7934,25.5596 C20.0254,25.7656 20.2664,25.9616 20.5144,26.1476 C20.5784,26.1956 20.7084,26.2316 20.7594,26.1976 C20.8134,26.1626 20.8354,26.0346 20.8244,25.9536 C20.7924,25.7276 20.7374,25.5046 20.6894,25.2816 C20.5304,24.5486 20.5294,24.5486 21.1504,24.1306 C21.3954,23.9656 21.6384,23.7986 21.8824,23.6326 C21.8684,23.5826 21.8544,23.5316 21.8404,23.4816 C21.5164,23.4546 21.1924,23.4096 20.8684,23.4026 C20.2604,23.3896 20.2654,23.3976 20.1064,22.8156 C20.0284,22.5336 19.9274,22.2576 19.8364,21.9796 C19.7884,21.9806 19.7394,21.9816 19.6914,21.9826 C19.5624,22.2706 19.3924,22.5476 19.3144,22.8476 C19.1724,23.3976 18.7974,23.5396 18.2954,23.5586 C17.9844,23.5706 17.6744,23.6376 17.3644,23.6796 M15.0574,19.4326 C15.1254,19.3306 15.1634,19.3006 15.1654,19.2666 C15.1774,19.1056 15.1834,18.9436 15.1834,18.7826 C15.1864,17.9966 15.1854,17.9956 15.9284,17.7196 C16.0794,17.6636 16.2354,17.6196 16.3844,17.5576 C16.5094,17.5066 16.6264,17.4386 16.7474,17.3786 C16.7424,17.3356 16.7384,17.2916 16.7344,17.2486 C16.4284,17.1896 16.1234,17.1146 15.8154,17.0756 C15.1384,16.9896 15.0894,16.9416 15.0224,16.2586 C15.0024,16.0606 14.9524,15.8666 14.9154,15.6716 C14.8704,15.6636 14.8254,15.6556 14.7804,15.6486 C14.6144,15.8506 14.4124,16.0336 14.2904,16.2596 C14.0124,16.7776 13.6094,16.9656 13.0284,16.9216 C12.6444,16.8926 12.2514,16.9746 11.8624,17.0066 C11.8554,17.0546 11.8484,17.1026 11.8414,17.1506 C11.9934,17.2396 12.1424,17.3346 12.2984,17.4156 C13.0914,17.8276 13.0894,17.8246 12.5454,18.5146 C12.3824,18.7226 12.2364,18.9446 12.0814,19.1596 C12.1184,19.2026 12.1554,19.2446 12.1924,19.2876 C12.5774,19.1116 12.9624,18.9356 13.3474,18.7606 C13.9284,18.4966 14.0114,18.5136 14.4894,18.9486 C14.6694,19.1126 14.8604,19.2646 15.0574,19.4326 M19.0694,13.8366 C19.1074,13.7956 19.1454,13.7546 19.1834,13.7136 C19.0644,13.4776 18.9664,13.2286 18.8224,13.0096 C18.6054,12.6816 18.6374,12.4646 19.0004,12.2666 C19.3044,12.0996 19.5734,11.8666 19.8584,11.6626 C19.8414,11.6216 19.8234,11.5796 19.8064,11.5376 C19.6434,11.5376 19.4784,11.5186 19.3184,11.5416 C18.5444,11.6536 17.8294,11.6536 17.5354,10.7246 C17.5314,10.7116 17.5244,10.6986 17.5154,10.6896 C17.4304,10.6106 17.3444,10.5336 17.2594,10.4556 C17.1864,10.5426 17.1034,10.6226 17.0434,10.7176 C16.9954,10.7956 16.9594,10.8896 16.9454,10.9806 C16.8574,11.5386 16.5114,11.7806 15.9714,11.7956 C15.8914,11.7976 15.8084,11.7986 15.7304,11.8156 C15.3944,11.8916 15.0604,11.9736 14.7254,12.0536 C14.7284,12.1026 14.7314,12.1516 14.7344,12.2006 C15.1274,12.3066 15.5184,12.4176 15.9124,12.5176 C16.2324,12.5986 16.3324,12.7586 16.1784,13.0746 C16.0484,13.3426 15.9544,13.6276 15.8444,13.9046 C15.8744,13.9296 15.9044,13.9546 15.9334,13.9786 C16.0514,13.9366 16.1784,13.9106 16.2864,13.8496 C16.5324,13.7106 16.7794,13.5696 17.0064,13.4016 C17.3614,13.1386 17.6974,13.1126 18.0834,13.3516 C18.3934,13.5436 18.7394,13.6776 19.0694,13.8366 M24.2794,10.9256 C24.3184,10.9006 24.3574,10.8746 24.3964,10.8486 C24.2784,10.5646 24.1704,10.2746 24.0394,9.9966 C23.7754,9.4386 23.7784,9.4246 24.3774,9.2206 C24.5824,9.1506 24.7844,9.0686 24.9874,8.9926 C24.9874,8.9396 24.9874,8.8856 24.9884,8.8326 C24.5724,8.7206 24.1614,8.5806 23.7394,8.5066 C23.3544,8.4386 23.1154,8.2496 22.9464,7.9046 C22.7914,7.5896 22.5894,7.2966 22.4074,6.9946 C22.3624,7.0026 22.3164,7.0116 22.2704,7.0196 C22.1944,7.2666 22.0934,7.5096 22.0494,7.7616 C21.9944,8.0816 21.8324,8.2026 21.5194,8.1566 C21.3464,8.1306 21.1724,8.1076 20.9984,8.1026 C20.7134,8.0936 20.4284,8.0996 20.1434,8.0996 C20.1324,8.1326 20.1214,8.1666 20.1104,8.1996 C20.2244,8.2756 20.3354,8.3566 20.4534,8.4266 C20.7434,8.5966 21.0334,8.7676 21.3294,8.9266 C21.5824,9.0636 21.6634,9.2476 21.5744,9.5286 C21.4914,9.7906 21.4424,10.0636 21.3474,10.4646 C21.6804,10.3406 21.9314,10.2956 22.1264,10.1646 C22.5894,9.8526 22.9854,9.8966 23.3954,10.2626 C23.6694,10.5066 23.9834,10.7066 24.2794,10.9256 M34.1624,22.6856 C34.1494,22.6426 34.1354,22.6006 34.1224,22.5586 C34.0614,22.5366 34.0014,22.5116 33.9394,22.4936 C33.8484,22.4676 33.7584,22.4316 33.6664,22.4256 C32.8104,22.3736 32.2694,21.9596 32.0844,21.1006 C32.0464,20.9236 31.9304,20.7626 31.8504,20.5946 C31.8084,20.6016 31.7674,20.6076 31.7254,20.6136 C31.6654,20.7556 31.5964,20.8946 31.5464,21.0396 C31.3374,21.6436 31.4374,21.7536 30.6534,21.4256 C30.3804,21.3116 30.0994,21.2186 29.8234,21.1166 C29.7954,21.1586 29.7684,21.1996 29.7414,21.2416 C29.9094,21.4226 30.0604,21.6266 30.2504,21.7816 C30.8084,22.2386 31.1834,22.7236 30.7734,23.4896 C30.6224,23.7726 30.7984,23.9286 31.0774,23.7786 C31.7974,23.3906 32.3444,23.6416 32.8464,24.1776 C32.9644,24.3036 33.1184,24.3996 33.2654,24.4916 C33.3434,24.5406 33.4444,24.5536 33.6514,24.6216 C33.4064,24.0926 33.2124,23.6746 33.0004,23.2156 C33.4114,23.0276 33.7864,22.8566 34.1624,22.6856 M24.9834,25.5826 C25.0164,25.6126 25.0504,25.6426 25.0844,25.6726 C25.2324,25.6276 25.4014,25.6126 25.5244,25.5306 C26.0624,25.1706 26.5054,25.2366 26.9184,25.7416 C27.1034,25.9676 27.3604,26.1346 27.5844,26.3276 C27.6294,26.2946 27.6744,26.2606 27.7194,26.2276 C27.5994,25.8936 27.4984,25.5516 27.3554,25.2286 C27.2224,24.9286 27.3194,24.7816 27.6064,24.6886 C27.8534,24.6096 28.0944,24.5096 28.3374,24.4186 C28.3404,24.3726 28.3444,24.3256 28.3474,24.2796 C28.1334,24.2016 27.9244,24.0866 27.7034,24.0536 C26.9994,23.9486 26.6684,23.5126 26.5344,22.8566 C26.4974,22.6736 26.3994,22.5036 26.3284,22.3276 C26.2844,22.3286 26.2394,22.3296 26.1954,22.3296 C26.1004,22.5576 25.9874,22.7796 25.9164,23.0146 C25.8204,23.3346 25.6574,23.4076 25.3454,23.2856 C25.0194,23.1576 24.6734,23.0806 24.3364,22.9816 C24.3084,23.0256 24.2814,23.0706 24.2534,23.1146 C24.4944,23.3736 24.7124,23.6616 24.9824,23.8856 C25.3574,24.1976 25.4184,24.5246 25.1974,24.9486 C25.0954,25.1446 25.0534,25.3706 24.9834,25.5826 M33.9914,18.2546 C33.9634,18.3016 33.9344,18.3496 33.9064,18.3976 C34.1724,18.6306 34.4274,18.8786 34.7074,19.0936 C34.9604,19.2866 35.0344,19.4906 34.9024,19.7896 C34.8174,19.9826 34.7854,20.1996 34.7074,20.4886 C34.9234,20.4256 35.0384,20.4196 35.1204,20.3636 C35.6754,19.9866 36.1864,20.0446 36.6944,20.4666 C36.8424,20.5906 37.0514,20.6406 37.2334,20.7246 C37.2604,20.6896 37.2874,20.6546 37.3144,20.6206 C37.2304,20.4426 37.1514,20.2616 37.0614,20.0866 C36.8074,19.5936 36.8094,19.5996 37.2684,19.2946 C37.5114,19.1336 37.7414,18.9516 37.9764,18.7786 C37.9574,18.7296 37.9384,18.6796 37.9184,18.6296 C37.6434,18.6296 37.3694,18.6306 37.0944,18.6296 C36.4104,18.6266 36.4134,18.6256 36.1714,17.9746 C36.0884,17.7516 35.9904,17.5336 35.8994,17.3136 C35.8544,17.3226 35.8084,17.3306 35.7634,17.3396 C35.6724,17.5726 35.5494,17.7986 35.4984,18.0406 C35.4104,18.4596 35.1604,18.5046 34.8094,18.4196 C34.5394,18.3546 34.2644,18.3086 33.9914,18.2546 M30.3754,10.8386 C30.4214,10.8056 30.4684,10.7716 30.5144,10.7386 C30.4274,10.4476 30.3634,10.1476 30.2474,9.8686 C30.1164,9.5526 30.2124,9.3976 30.5204,9.2956 C30.7604,9.2156 30.9854,9.0916 31.2174,8.9866 C31.2134,8.9406 31.2084,8.8936 31.2034,8.8466 C30.9814,8.7756 30.7644,8.6746 30.5374,8.6396 C29.9774,8.5536 29.6554,8.2616 29.5334,7.6986 C29.4824,7.4596 29.3094,7.2476 29.1924,7.0236 C29.0864,7.2456 28.9494,7.4586 28.8824,7.6916 C28.7864,8.0326 28.6164,8.1116 28.2894,7.9926 C27.9864,7.8826 27.6664,7.8186 27.3534,7.7336 C27.3324,7.7726 27.3114,7.8106 27.2904,7.8496 C27.4154,7.9776 27.5284,8.1216 27.6684,8.2306 C28.1874,8.6326 28.5944,9.0506 28.1624,9.7696 C28.0254,9.9986 28.1714,10.0936 28.4104,10.0316 C28.5274,10.0016 28.6464,9.9696 28.7554,9.9196 C29.1274,9.7496 29.4194,9.8346 29.6824,10.1476 C29.8914,10.3966 30.1424,10.6096 30.3754,10.8386 M37.8134,15.8166 C37.8544,15.8446 37.8954,15.8716 37.9364,15.8996 C38.0964,15.7676 38.2804,15.6556 38.4124,15.5006 C38.8074,15.0386 39.2484,14.8686 39.8214,15.1736 C39.9234,15.2276 40.0744,15.1886 40.2024,15.1926 C40.1914,15.0556 40.2244,14.8936 40.1624,14.7846 C39.8984,14.3256 39.9574,13.9646 40.3794,13.6246 C40.6384,13.4166 40.8374,13.1336 41.0634,12.8846 C41.0354,12.8476 41.0074,12.8096 40.9794,12.7716 C40.6474,12.8936 40.3144,13.0106 39.9844,13.1376 C39.7164,13.2396 39.5534,13.1816 39.4804,12.8796 C39.4214,12.6346 39.3174,12.3996 39.2334,12.1596 C39.1894,12.1616 39.1444,12.1636 39.1004,12.1656 C39.0094,12.3946 38.8834,12.6176 38.8354,12.8556 C38.7174,13.4486 38.3654,13.7236 37.7764,13.7546 C37.6014,13.7646 37.4294,13.8406 37.1404,13.9166 C37.3484,14.0696 37.4524,14.1616 37.5714,14.2306 C38.2334,14.6146 38.2654,14.4296 37.9584,15.2986 C37.8984,15.4676 37.8614,15.6436 37.8134,15.8166 M35.8404,7.6776 C35.7954,7.6786 35.7494,7.6806 35.7044,7.6826 C35.6214,7.9856 35.5314,8.2876 35.4584,8.5936 C35.3824,8.9076 35.2364,9.0956 34.8724,9.0566 C34.6174,9.0286 34.3564,9.0506 34.0984,9.0506 C34.0824,9.0986 34.0664,9.1456 34.0514,9.1936 C34.2674,9.3806 34.4684,9.5886 34.7024,9.7486 C34.9814,9.9406 35.0474,10.1656 34.9424,10.4776 C34.8674,10.6986 34.8264,10.9316 34.7704,11.1586 C34.8094,11.1886 34.8484,11.2186 34.8874,11.2476 C35.0534,11.1336 35.2454,11.0436 35.3794,10.8996 C35.6984,10.5606 36.0054,10.4906 36.3864,10.8096 C36.5294,10.9296 36.7354,10.9756 36.9124,11.0556 C36.9424,11.0336 36.9724,11.0106 37.0024,10.9886 C36.9424,10.7936 36.8914,10.5956 36.8214,10.4056 C36.6024,9.8106 36.6034,9.8166 37.1154,9.4566 C37.2984,9.3266 37.4624,9.1696 37.6354,9.0246 C37.6144,8.9826 37.5944,8.9406 37.5734,8.8986 C37.2704,8.8986 36.9664,8.8896 36.6624,8.9016 C36.3794,8.9126 36.2144,8.8146 36.1424,8.5196 C36.0724,8.2316 35.9434,7.9576 35.8404,7.6776 M41.1904,10.2586 C41.2294,10.2836 41.2684,10.3076 41.3084,10.3316 C41.4954,10.1676 41.6994,10.0186 41.8674,9.8376 C42.2504,9.4276 42.6584,9.1586 43.2504,9.4016 C43.3564,9.4446 43.5064,9.3816 43.6364,9.3676 C43.6164,9.2436 43.6354,9.0906 43.5694,9.0006 C43.2974,8.6276 43.4224,8.3706 43.7474,8.1166 C43.9784,7.9366 44.1724,7.7106 44.3834,7.5046 C44.3594,7.4676 44.3354,7.4296 44.3114,7.3916 C44.0224,7.4776 43.7204,7.5346 43.4474,7.6556 C43.1104,7.8046 42.9834,7.6676 42.9054,7.3656 C42.8574,7.1856 42.7804,7.0126 42.7174,6.8366 C42.6794,6.8356 42.6414,6.8356 42.6034,6.8356 C42.5304,6.9856 42.4254,7.1286 42.3904,7.2876 C42.2464,7.9346 41.8414,8.2676 41.2014,8.3706 C41.0204,8.3996 40.8504,8.4956 40.6754,8.5606 C40.6784,8.6006 40.6814,8.6396 40.6854,8.6796 C40.9944,8.8146 41.3044,8.9506 41.6174,9.0876 C41.4654,9.5056 41.3274,9.8826 41.1904,10.2586" id="Fill-6" fill="#1D1D1B"></path>
            <path d="M30.7024,14.2656 C30.5504,14.3276 30.4024,14.4046 30.2454,14.4486 C27.2634,15.2786 24.3394,16.2746 21.6304,17.7896 C18.5354,19.5196 15.6274,21.5276 13.0894,24.0286 C12.2434,24.8626 12.1264,24.5906 12.6484,25.9466 C12.6974,26.0746 12.6864,26.2256 12.7034,26.3656 C12.5524,26.3776 12.3814,26.4426 12.2534,26.3936 C11.4464,26.0896 10.8454,26.3086 10.3614,27.0166 C10.1584,27.3126 9.8504,27.5356 9.5904,27.7926 C9.5564,27.7676 9.5214,27.7426 9.4874,27.7186 C9.4924,27.6336 9.4844,27.5456 9.5054,27.4646 C9.5594,27.2556 9.6314,27.0526 9.6864,26.8436 C9.9144,25.9866 9.9124,25.9896 9.0424,25.7926 C8.9364,25.7686 8.8454,25.6776 8.7464,25.6166 C8.8114,25.5236 8.8584,25.4066 8.9444,25.3406 C9.2024,25.1446 9.4594,24.9416 9.7434,24.7896 C10.2744,24.5066 10.5534,24.0676 10.6754,23.4946 C10.7424,23.1796 10.8444,22.8716 10.9464,22.5646 C10.9894,22.4346 11.0714,22.3176 11.1354,22.1946 C11.1764,22.1926 11.2174,22.1896 11.2584,22.1866 C11.3824,22.4996 11.5084,22.8116 11.6294,23.1266 C11.8104,23.5946 11.8684,23.6116 12.2724,23.3106 C13.6474,22.2876 14.9904,21.2186 16.4044,20.2536 C19.8774,17.8846 23.5804,15.9676 27.6384,14.7986 C28.5044,14.5496 29.3814,14.3396 30.2564,14.1236 C30.3894,14.0906 30.5384,14.1186 30.6804,14.1186 C30.6874,14.1676 30.6954,14.2166 30.7024,14.2656" id="Fill-8" fill="#1D1D1B"></path>
            <path d="M17.3641,23.6792 C17.6741,23.6372 17.9841,23.5702 18.2961,23.5582 C18.7981,23.5392 19.1721,23.3982 19.3141,22.8482 C19.3931,22.5472 19.5631,22.2702 19.6911,21.9822 C19.7401,21.9812 19.7881,21.9802 19.8361,21.9802 C19.9271,22.2582 20.0291,22.5332 20.1061,22.8152 C20.2651,23.3972 20.2601,23.3902 20.8681,23.4032 C21.1921,23.4102 21.5161,23.4542 21.8401,23.4822 C21.8541,23.5322 21.8681,23.5822 21.8821,23.6322 C21.6381,23.7982 21.3951,23.9652 21.1511,24.1302 C20.5301,24.5492 20.5301,24.5482 20.6891,25.2812 C20.7371,25.5052 20.7921,25.7272 20.8241,25.9532 C20.8351,26.0342 20.8131,26.1632 20.7601,26.1982 C20.7081,26.2312 20.5781,26.1962 20.5141,26.1482 C20.2661,25.9622 20.0251,25.7652 19.7931,25.5602 C19.5841,25.3752 19.3961,25.3852 19.1851,25.5582 C18.8731,25.8162 18.5521,26.0632 18.2291,26.3052 C18.1741,26.3462 18.0861,26.3402 17.9081,26.3792 C18.0251,26.0502 18.1141,25.7932 18.2091,25.5382 C18.2691,25.3742 18.3321,25.2102 18.4041,25.0512 C18.5301,24.7692 18.4591,24.5602 18.1951,24.4012 C17.9021,24.2242 17.6151,24.0362 17.3251,23.8522 C17.3381,23.7942 17.3511,23.7372 17.3641,23.6792" id="Fill-10" fill="#1D1D1B"></path>
            <path d="M15.057,19.4322 C14.86,19.2652 14.67,19.1132 14.49,18.9492 C14.012,18.5132 13.928,18.4972 13.348,18.7602 C12.962,18.9352 12.578,19.1112 12.193,19.2872 C12.156,19.2452 12.119,19.2022 12.082,19.1602 C12.236,18.9442 12.382,18.7222 12.546,18.5152 C13.09,17.8242 13.091,17.8272 12.299,17.4152 C12.143,17.3342 11.994,17.2392 11.841,17.1512 C11.848,17.1032 11.855,17.0552 11.862,17.0062 C12.252,16.9742 12.644,16.8932 13.029,16.9222 C13.61,16.9662 14.012,16.7772 14.29,16.2602 C14.412,16.0342 14.614,15.8512 14.78,15.6482 C14.825,15.6562 14.87,15.6632 14.916,15.6712 C14.952,15.8672 15.003,16.0612 15.022,16.2582 C15.089,16.9422 15.139,16.9892 15.815,17.0752 C16.124,17.1152 16.428,17.1902 16.734,17.2492 C16.738,17.2922 16.743,17.3352 16.747,17.3782 C16.626,17.4382 16.509,17.5062 16.384,17.5582 C16.235,17.6192 16.079,17.6642 15.928,17.7202 C15.185,17.9962 15.186,17.9962 15.183,18.7822 C15.183,18.9442 15.177,19.1062 15.165,19.2672 C15.163,19.3002 15.125,19.3312 15.057,19.4322" id="Fill-12" fill="#1D1D1B"></path>
            <path d="M19.0689,13.8369 C18.7389,13.6769 18.3929,13.5439 18.0829,13.3519 C17.6969,13.1119 17.3619,13.1389 17.0059,13.4019 C16.7799,13.5699 16.5319,13.7109 16.2859,13.8499 C16.1789,13.9109 16.0519,13.9369 15.9339,13.9789 C15.9039,13.9539 15.8739,13.9299 15.8449,13.9049 C15.9549,13.6279 16.0479,13.3419 16.1789,13.0749 C16.3329,12.7579 16.2319,12.5979 15.9119,12.5179 C15.5179,12.4179 15.1269,12.3069 14.7349,12.2009 C14.7319,12.1519 14.7289,12.1029 14.7249,12.0539 C15.0599,11.9739 15.3949,11.8919 15.7309,11.8159 C15.8089,11.7979 15.8909,11.7979 15.9719,11.7959 C16.5119,11.7809 16.8579,11.5389 16.9449,10.9809 C16.9599,10.8899 16.9949,10.7959 17.0439,10.7169 C17.1029,10.6219 17.1869,10.5419 17.2599,10.4559 C17.3449,10.5339 17.4309,10.6109 17.5149,10.6899 C17.5249,10.6979 17.5319,10.7119 17.5359,10.7239 C17.8289,11.6539 18.5449,11.6539 19.3179,11.5419 C19.4779,11.5189 19.6439,11.5379 19.8069,11.5379 C19.8239,11.5799 19.8409,11.6219 19.8579,11.6629 C19.5729,11.8669 19.3049,12.0989 18.9999,12.2659 C18.6369,12.4649 18.6049,12.6819 18.8219,13.0099 C18.9669,13.2279 19.0649,13.4779 19.1829,13.7129 C19.1449,13.7549 19.1069,13.7959 19.0689,13.8369" id="Fill-14" fill="#1D1D1B"></path>
            <path d="M24.2798,10.926 C23.9838,10.706 23.6698,10.507 23.3958,10.262 C22.9858,9.896 22.5898,9.852 22.1258,10.165 C21.9318,10.296 21.6798,10.341 21.3478,10.464 C21.4428,10.064 21.4918,9.791 21.5738,9.529 C21.6628,9.248 21.5828,9.063 21.3298,8.927 C21.0338,8.767 20.7428,8.597 20.4528,8.426 C20.3358,8.357 20.2248,8.276 20.1108,8.2 C20.1218,8.166 20.1318,8.133 20.1428,8.1 C20.4278,8.1 20.7138,8.094 20.9988,8.102 C21.1728,8.108 21.3468,8.13 21.5188,8.156 C21.8318,8.203 21.9938,8.082 22.0498,7.762 C22.0938,7.509 22.1948,7.267 22.2708,7.02 C22.3158,7.011 22.3618,7.003 22.4078,6.994 C22.5888,7.297 22.7918,7.589 22.9468,7.905 C23.1158,8.249 23.3548,8.439 23.7398,8.506 C24.1618,8.58 24.5728,8.721 24.9878,8.833 C24.9878,8.886 24.9878,8.939 24.9868,8.993 C24.7838,9.069 24.5828,9.151 24.3778,9.221 C23.7778,9.424 23.7748,9.438 24.0398,9.997 C24.1708,10.275 24.2778,10.564 24.3968,10.849 C24.3578,10.875 24.3188,10.9 24.2798,10.926" id="Fill-16" fill="#1D1D1B"></path>
            <path d="M34.1622,22.6854 C33.7872,22.8564 33.4112,23.0284 33.0002,23.2154 C33.2132,23.6754 33.4062,24.0924 33.6512,24.6214 C33.4442,24.5544 33.3432,24.5404 33.2652,24.4914 C33.1182,24.3994 32.9642,24.3034 32.8462,24.1784 C32.3442,23.6414 31.7982,23.3904 31.0782,23.7784 C30.7982,23.9284 30.6222,23.7724 30.7742,23.4894 C31.1832,22.7234 30.8082,22.2384 30.2502,21.7814 C30.0602,21.6264 29.9092,21.4234 29.7412,21.2414 C29.7682,21.2004 29.7952,21.1584 29.8232,21.1164 C30.1002,21.2194 30.3812,21.3124 30.6532,21.4254 C31.4382,21.7544 31.3372,21.6434 31.5462,21.0404 C31.5972,20.8944 31.6652,20.7554 31.7262,20.6134 C31.7672,20.6074 31.8082,20.6014 31.8502,20.5944 C31.9302,20.7624 32.0462,20.9234 32.0842,21.1004 C32.2692,21.9594 32.8102,22.3744 33.6662,22.4254 C33.7582,22.4314 33.8492,22.4674 33.9392,22.4934 C34.0012,22.5114 34.0612,22.5364 34.1232,22.5584 C34.1362,22.6004 34.1492,22.6434 34.1622,22.6854" id="Fill-18" fill="#1D1D1B"></path>
            <path d="M24.9832,25.5831 C25.0532,25.3711 25.0962,25.1451 25.1972,24.9491 C25.4182,24.5251 25.3582,24.1971 24.9822,23.8851 C24.7122,23.6611 24.4942,23.3741 24.2532,23.1151 C24.2812,23.0701 24.3082,23.0261 24.3362,22.9821 C24.6732,23.0811 25.0192,23.1581 25.3452,23.2851 C25.6572,23.4081 25.8202,23.3341 25.9162,23.0151 C25.9872,22.7801 26.1012,22.5581 26.1952,22.3301 C26.2402,22.3291 26.2842,22.3291 26.3292,22.3281 C26.3992,22.5041 26.4972,22.6741 26.5342,22.8571 C26.6682,23.5131 26.9992,23.9491 27.7032,24.0531 C27.9242,24.0861 28.1332,24.2021 28.3472,24.2801 C28.3442,24.3261 28.3402,24.3721 28.3372,24.4191 C28.0942,24.5101 27.8542,24.6101 27.6062,24.6891 C27.3192,24.7811 27.2222,24.9281 27.3552,25.2291 C27.4982,25.5521 27.5992,25.8941 27.7192,26.2271 C27.6742,26.2611 27.6292,26.2941 27.5842,26.3281 C27.3602,26.1341 27.1032,25.9681 26.9192,25.7421 C26.5052,25.2371 26.0622,25.1711 25.5242,25.5301 C25.4012,25.6131 25.2322,25.6271 25.0842,25.6731 C25.0502,25.6431 25.0172,25.6131 24.9832,25.5831" id="Fill-20" fill="#1D1D1B"></path>
            <path d="M33.9918,18.2542 C34.2648,18.3082 34.5388,18.3542 34.8088,18.4192 C35.1598,18.5042 35.4108,18.4602 35.4988,18.0412 C35.5488,17.7992 35.6728,17.5722 35.7628,17.3392 C35.8088,17.3302 35.8538,17.3222 35.8998,17.3142 C35.9908,17.5342 36.0888,17.7512 36.1718,17.9742 C36.4128,18.6252 36.4108,18.6262 37.0938,18.6292 C37.3688,18.6302 37.6438,18.6292 37.9188,18.6292 C37.9378,18.6792 37.9578,18.7292 37.9768,18.7792 C37.7408,18.9512 37.5108,19.1332 37.2678,19.2942 C36.8088,19.6002 36.8078,19.5942 37.0608,20.0872 C37.1508,20.2622 37.2308,20.4422 37.3148,20.6202 C37.2878,20.6552 37.2598,20.6892 37.2328,20.7242 C37.0518,20.6402 36.8428,20.5902 36.6938,20.4672 C36.1858,20.0442 35.6758,19.9872 35.1208,20.3642 C35.0388,20.4192 34.9228,20.4262 34.7078,20.4892 C34.7858,20.1992 34.8168,19.9832 34.9018,19.7902 C35.0348,19.4902 34.9598,19.2862 34.7078,19.0932 C34.4278,18.8782 34.1718,18.6312 33.9058,18.3982 C33.9348,18.3502 33.9628,18.3022 33.9918,18.2542" id="Fill-22" fill="#1D1D1B"></path>
            <path d="M30.375,10.8387 C30.143,10.6097 29.892,10.3967 29.683,10.1477 C29.419,9.8347 29.128,9.7497 28.755,9.9197 C28.646,9.9697 28.527,10.0017 28.41,10.0317 C28.172,10.0937 28.025,9.9987 28.163,9.7697 C28.594,9.0507 28.187,8.6327 27.669,8.2307 C27.529,8.1217 27.416,7.9777 27.291,7.8497 C27.312,7.8107 27.333,7.7727 27.354,7.7337 C27.666,7.8187 27.986,7.8827 28.29,7.9927 C28.616,8.1117 28.786,8.0327 28.883,7.6917 C28.949,7.4587 29.086,7.2457 29.192,7.0237 C29.31,7.2477 29.482,7.4597 29.534,7.6987 C29.655,8.2617 29.978,8.5537 30.537,8.6397 C30.764,8.6747 30.981,8.7757 31.203,8.8467 C31.208,8.8937 31.213,8.9397 31.218,8.9867 C30.986,9.0917 30.76,9.2157 30.52,9.2957 C30.212,9.3977 30.116,9.5527 30.248,9.8687 C30.364,10.1477 30.428,10.4477 30.514,10.7387 C30.468,10.7717 30.421,10.8057 30.375,10.8387" id="Fill-24" fill="#1D1D1B"></path>
            <path d="M37.8132,15.8168 C37.8612,15.6438 37.8992,15.4678 37.9582,15.2988 C38.2652,14.4298 38.2332,14.6148 37.5712,14.2308 C37.4522,14.1618 37.3482,14.0698 37.1402,13.9168 C37.4302,13.8408 37.6012,13.7648 37.7762,13.7548 C38.3652,13.7238 38.7172,13.4488 38.8362,12.8558 C38.8832,12.6178 39.0092,12.3948 39.1002,12.1648 C39.1442,12.1638 39.1892,12.1618 39.2332,12.1598 C39.3172,12.3998 39.4212,12.6348 39.4802,12.8798 C39.5532,13.1818 39.7162,13.2398 39.9852,13.1368 C40.3142,13.0108 40.6472,12.8928 40.9792,12.7718 C41.0072,12.8098 41.0352,12.8468 41.0632,12.8848 C40.8372,13.1338 40.6382,13.4168 40.3802,13.6248 C39.9572,13.9648 39.8982,14.3258 40.1622,14.7848 C40.2242,14.8928 40.1912,15.0558 40.2022,15.1928 C40.0742,15.1888 39.9232,15.2268 39.8212,15.1728 C39.2482,14.8688 38.8072,15.0378 38.4122,15.5008 C38.2802,15.6558 38.0972,15.7678 37.9362,15.8998 C37.8952,15.8718 37.8542,15.8448 37.8132,15.8168" id="Fill-26" fill="#1D1D1B"></path>
            <path d="M35.8401,7.6773 C35.9431,7.9573 36.0721,8.2313 36.1431,8.5193 C36.2151,8.8153 36.3801,8.9123 36.6631,8.9013 C36.9661,8.8893 37.2701,8.8993 37.5741,8.8993 C37.5941,8.9403 37.6151,8.9823 37.6351,9.0243 C37.4621,9.1693 37.2991,9.3273 37.1151,9.4563 C36.6031,9.8163 36.6021,9.8113 36.8211,10.4053 C36.8911,10.5963 36.9431,10.7943 37.0021,10.9883 C36.9731,11.0113 36.9431,11.0333 36.9131,11.0563 C36.7351,10.9763 36.5301,10.9293 36.3861,10.8093 C36.0051,10.4903 35.6991,10.5603 35.3801,10.9003 C35.2451,11.0433 35.0541,11.1333 34.8881,11.2483 C34.8491,11.2183 34.8101,11.1893 34.7701,11.1593 C34.8261,10.9313 34.8671,10.6993 34.9421,10.4773 C35.0471,10.1653 34.9821,9.9403 34.7021,9.7483 C34.4681,9.5883 34.2671,9.3803 34.0511,9.1933 C34.0671,9.1463 34.0821,9.0983 34.0981,9.0513 C34.3561,9.0513 34.6171,9.0283 34.8721,9.0563 C35.2361,9.0953 35.3831,8.9073 35.4581,8.5933 C35.5321,8.2873 35.6221,7.9863 35.7051,7.6823 C35.7501,7.6803 35.7951,7.6793 35.8401,7.6773" id="Fill-28" fill="#1D1D1B"></path>
            <path d="M41.1901,10.2591 C41.3281,9.8821 41.4651,9.5051 41.6181,9.0881 C41.3041,8.9501 40.9941,8.8151 40.6851,8.6791 C40.6821,8.6401 40.6781,8.6001 40.6751,8.5611 C40.8501,8.4951 41.0211,8.4001 41.2021,8.3711 C41.8411,8.2681 42.2461,7.9341 42.3901,7.2881 C42.4251,7.1291 42.5301,6.9861 42.6041,6.8351 C42.6411,6.8351 42.6791,6.8361 42.7171,6.8361 C42.7811,7.0121 42.8581,7.1851 42.9051,7.3661 C42.9841,7.6681 43.1101,7.8051 43.4471,7.6561 C43.7211,7.5341 44.0221,7.4771 44.3111,7.3921 C44.3351,7.4301 44.3591,7.4671 44.3831,7.5051 C44.1731,7.7101 43.9781,7.9371 43.7471,8.1171 C43.4221,8.3711 43.2971,8.6271 43.5691,9.0001 C43.6351,9.0911 43.6161,9.2431 43.6361,9.3671 C43.5061,9.3811 43.3571,9.4441 43.2511,9.4011 C42.6591,9.1591 42.2501,9.4271 41.8681,9.8381 C41.6991,10.0191 41.4961,10.1681 41.3081,10.3321 C41.2691,10.3071 41.2291,10.2831 41.1901,10.2591" id="Fill-30" fill="#1D1D1B"></path>
            <mask id="mask-4" fill="white">
                <use xlink:href="#path-3"></use>
            </mask>
            <g id="Clip-33"></g>
            <polygon id="Stroke-32" stroke="#1D1D1B" stroke-width="0.337" mask="url(#mask-4)" points="0.169 34.6094 51.871 34.6094 51.871 0.1684 0.169 0.1684"></polygon>
        </g>
    </g>
</svg>