<?xml version="1.0" encoding="utf-8"?>
<!-- Generator: Adobe Illustrator 19.2.1, SVG Export Plug-In . SVG Version: 6.00 Build 0)  -->
<svg version="1.1" id="Calque_1" xmlns="http://www.w3.org/2000/svg" xmlns:xlink="http://www.w3.org/1999/xlink" x="0px" y="0px"
	 viewBox="0 0 75 52" style="enable-background:new 0 0 75 52;" xml:space="preserve">
<style type="text/css">
	.st0{fill:#1D1D1B;}
	.st1{fill:#FFFFFF;}
</style>
<title>logo-K&amp;J+LBDP</title>
<desc>Created with Sketch.</desc>
<g>
	<g>
		<path class="st0" d="M27.4,35.2c-0.8-2.7-3.3-7.7-5.6-7.7c-0.9,0-1.2,0.3-1.5,0.5v4.1c0,0.8,0.3,1.3,1,1.5c0.5,0.2,1,0.4,1.7,0.4
			v1.1h-8.3v-1.1c0.6,0,1.1-0.1,1.5-0.2c0.7-0.2,1-0.8,1-1.5V12.9c-0.1-0.8-0.4-1.7-1-2c-0.5-0.4-1.7-0.5-2.4-0.5V9.3l6.3-0.4
			l0.2,0.2v17.8c1.6-1.5,3.9-3.7,5.4-5.2c0.2-0.2,0.5-0.6,0.5-0.8c0-0.6-1.3-0.8-2.2-1v-1.1h7.4v1c-1.9,0.5-3.5,1.4-4.3,2.1
			c-1,0.8-2.1,1.8-3.2,3c3.5,1.6,4.7,4.7,6.3,7.7c0.3,0.5,0.9,0.9,1.5,1.1c0.6,0.2,1.2,0.2,1.4,0.2v1.1H27.4L27.4,35.2z"/>
		<polygon class="st1" points="26.7,22.1 26.7,22.1 26.7,22.1 		"/>
		<path class="st1" d="M19.9,34.4c-0.2,0-0.3,0.1-0.3,0.3c0,0.1,0.2,0.2,0.3,0.2c0.1,0,0.2-0.1,0.2-0.2C20.1,34.6,20,34.4,19.9,34.4
			L19.9,34.4z"/>
		<path class="st1" d="M14.9,34.6c0,0.1,0,0.3,0.2,0.3c0.1,0,0.3-0.1,0.3-0.3c0,0-0.1-0.1-0.2-0.1C15.1,34.4,14.9,34.5,14.9,34.6
			L14.9,34.6z"/>
		<ellipse transform="matrix(0.5145 -0.8575 0.8575 0.5145 -10.4025 25.386)" class="st1" cx="17.2" cy="21.9" rx="0" ry="0"/>
		<path class="st1" d="M19.9,26.8c0.1,0,0.3-0.1,0.3-0.2c0-0.1-0.1-0.2-0.1-0.3c-0.2,0-0.3,0.1-0.3,0.2
			C19.7,26.7,19.8,26.8,19.9,26.8L19.9,26.8z"/>
		<path class="st1" d="M20.8,26.8c0,0.1,0,0.1,0,0.2c-0.1,0.1-0.1,0.2,0,0.3c0.1,0,0.2,0.1,0.3,0c0.1,0,0.2-0.2,0.1-0.3
			C21.1,26.8,21,26.7,20.8,26.8L20.8,26.8L20.8,26.8z"/>
		<ellipse transform="matrix(0.6997 -0.7144 0.7144 0.6997 -14.058 30.8118)" class="st1" cx="29.6" cy="32.1" rx="0" ry="0"/>
		<path class="st1" d="M20.2,27.4c-0.1,0-0.3,0.1-0.2,0.3c0,0.1,0.1,0.2,0.1,0.3c0.2,0,0.3-0.2,0.3-0.3
			C20.4,27.5,20.3,27.4,20.2,27.4L20.2,27.4z"/>
		<path class="st1" d="M27.3,30.9c-0.1,0-0.2,0-0.3,0.1c-0.1,0.2,0,0.3,0.4,0.4C27.5,31.1,27.4,30.9,27.3,30.9L27.3,30.9z"/>
		<path class="st1" d="M19.7,9.7c0.1,0.1,0.3,0,0.3-0.1c0-0.1,0-0.2,0.1-0.3c0,0-0.1-0.1-0.1-0.1c-0.1,0.1-0.2,0.1-0.3,0.2
			C19.5,9.4,19.6,9.6,19.7,9.7L19.7,9.7z"/>
		<path class="st1" d="M25.3,29.8c0.1,0,0.2-0.1,0.2-0.3c0-0.1-0.2-0.3-0.4-0.3c0,0.1-0.1,0.2-0.1,0.2
			C25.1,29.6,25.2,29.7,25.3,29.8L25.3,29.8z"/>
		<path class="st1" d="M27.8,32.5c0.1,0,0.2-0.1,0.2-0.2c0-0.1,0-0.2,0-0.3c-0.1,0-0.2,0-0.3,0.1c-0.1,0.1-0.1,0.2-0.1,0.3
			C27.5,32.4,27.7,32.5,27.8,32.5L27.8,32.5z"/>
		<polygon class="st1" points="28.2,31.5 28.2,31.5 28.2,31.5 28.2,31.5 		"/>
		<path class="st1" d="M23,27.1c-0.1-0.1-0.3,0.1-0.4,0.2c0,0.1,0.1,0.2,0.2,0.2c0.1,0,0.3-0.1,0.3-0.3C23.2,27.3,23.1,27.2,23,27.1
			L23,27.1z"/>
		<path class="st1" d="M16.5,34.4c-0.1,0-0.2,0.2-0.2,0.3c0,0.1,0.1,0.2,0.2,0.2c0.2,0,0.3-0.1,0.2-0.3
			C16.7,34.5,16.7,34.4,16.5,34.4L16.5,34.4z"/>
		<path class="st1" d="M27.7,33.9c0-0.1-0.2-0.3-0.3-0.3c0,0-0.1,0.1-0.1,0.1c0,0.2,0.1,0.4,0.2,0.4C27.7,34.1,27.7,34,27.7,33.9
			L27.7,33.9z"/>
		<path class="st1" d="M21.7,34.7c0,0.1,0.2,0.3,0.3,0.2c0.1,0,0.2-0.1,0.3-0.2c-0.1-0.1-0.2-0.2-0.3-0.2
			C21.8,34.5,21.7,34.6,21.7,34.7L21.7,34.7z"/>
		<polygon class="st1" points="26.7,22.1 26.7,22.1 26.7,22.1 26.7,22.1 26.7,22.1 26.7,22.1 26.7,22.1 		"/>
		<path class="st1" d="M29,34.2c0-0.2-0.1-0.4-0.3-0.4c-0.1,0-0.2,0.1-0.2,0.2c0,0.1,0.1,0.3,0.3,0.3C28.9,34.3,29,34.3,29,34.2
			L29,34.2z"/>
		<path class="st1" d="M22.6,34.4c-0.1,0.2-0.2,0.3-0.2,0.4c0,0,0.1,0.2,0.2,0.2c0.1,0,0.2-0.1,0.2-0.3
			C22.8,34.6,22.7,34.5,22.6,34.4L22.6,34.4z"/>
		<path class="st1" d="M17.7,22.1c0-0.1,0.1-0.2,0.1-0.2c0-0.2-0.2-0.3-0.4-0.1c-0.1,0-0.1,0.1-0.2,0.2c0.1,0.1,0.2,0.2,0.3,0.2
			C17.6,22.1,17.7,22.1,17.7,22.1L17.7,22.1z"/>
		<polygon class="st1" points="17.2,21.9 17.2,21.9 17.2,21.9 17.2,21.9 17.2,21.9 		"/>
		<rect x="17.2" y="21.9" transform="matrix(0.5882 -0.8087 0.8087 0.5882 -10.6052 22.9353)" class="st1" width="0" height="0"/>
		<path class="st1" d="M18.5,34.2c0.1,0,0.2-0.1,0.2-0.2c0-0.1-0.1-0.2-0.2-0.4c-0.1,0.2-0.2,0.3-0.2,0.4
			C18.3,34.1,18.4,34.2,18.5,34.2L18.5,34.2z"/>
		<path class="st1" d="M17.2,34.7c0,0.1,0,0.3,0.2,0.3c0.1,0,0.2-0.1,0.2-0.2c0-0.1-0.1-0.2-0.2-0.4C17.3,34.5,17.2,34.6,17.2,34.7
			L17.2,34.7z"/>
		<path class="st1" d="M17.6,31.7c0,0,0.2-0.1,0.2-0.1c0-0.1,0-0.3-0.1-0.4c0,0-0.2,0-0.3,0C17.3,31.5,17.4,31.6,17.6,31.7
			L17.6,31.7z"/>
		<path class="st1" d="M31.4,34.3c0,0.2,0.1,0.3,0.2,0.3c0.2-0.2,0.2-0.2,0.2-0.5C31.6,34.1,31.4,34.1,31.4,34.3L31.4,34.3z"/>
		<path class="st1" d="M28,32.8c0,0-0.1,0.1-0.1,0.2c0,0.2,0.1,0.3,0.2,0.3c0.1,0,0.2-0.1,0.2-0.2C28.4,33,28.2,32.8,28,32.8
			L28,32.8z"/>
		<path class="st1" d="M17.6,23.2c0.1,0,0.3-0.1,0.2-0.3c0,0-0.1-0.1-0.2-0.1c-0.1,0-0.3,0.2-0.2,0.3C17.4,23.1,17.5,23.2,17.6,23.2
			L17.6,23.2z"/>
		<path class="st1" d="M20.8,34.5c-0.1,0-0.2,0.1-0.2,0.2c0,0.1,0.1,0.3,0.2,0.2c0.1,0,0.2-0.1,0.2-0.2
			C21.1,34.6,20.9,34.5,20.8,34.5L20.8,34.5z"/>
		<path class="st1" d="M27.8,34.5c-0.1,0-0.2,0.1-0.2,0.2c0,0.2,0.1,0.3,0.2,0.3c0.1,0,0.2-0.1,0.2-0.2C28,34.7,27.8,34.4,27.8,34.5
			L27.8,34.5z"/>
		<path class="st1" d="M23.4,26.9c0,0.1,0.1,0.2,0.3,0.2c0-0.1,0.1-0.1,0.1-0.2c0-0.2-0.1-0.2-0.3-0.2
			C23.5,26.7,23.4,26.8,23.4,26.9L23.4,26.9z"/>
		<path class="st1" d="M18.6,29.9c-0.1,0.1-0.2,0.2-0.2,0.2c0,0.1,0.1,0.2,0.2,0.2c0.1,0,0.2-0.1,0.3-0.2
			C18.8,30.1,18.7,30,18.6,29.9L18.6,29.9z"/>
		<path class="st1" d="M20,17.4c0.1,0,0.2-0.1,0.2-0.2c0-0.1-0.1-0.2-0.3-0.2c0,0-0.1,0.1-0.1,0.2C19.7,17.3,19.9,17.5,20,17.4
			L20,17.4z"/>
		<path class="st1" d="M20,33.4c0.1,0,0.2-0.1,0.2-0.1c0-0.2-0.1-0.4-0.2-0.3c-0.1,0-0.2,0.1-0.2,0.2C19.8,33.3,19.9,33.4,20,33.4
			L20,33.4z"/>
		<path class="st1" d="M16.7,10.4c-0.1-0.1-0.2-0.2-0.3-0.2c-0.1,0-0.3,0.1-0.2,0.2c0,0.1,0.1,0.2,0.3,0.2
			C16.5,10.7,16.5,10.5,16.7,10.4L16.7,10.4z"/>
		<path class="st1" d="M18,34.4c-0.1,0-0.3,0.1-0.2,0.2c0,0.1,0.1,0.2,0.2,0.3c0.1-0.1,0.2-0.2,0.2-0.3C18.2,34.5,18.1,34.4,18,34.4
			L18,34.4z"/>
		<path class="st1" d="M18.9,34.4c-0.1,0-0.3,0.2-0.2,0.3c0,0.1,0.1,0.1,0.1,0.2c0.2,0,0.3-0.1,0.3-0.2C19,34.6,19,34.4,18.9,34.4
			L18.9,34.4z"/>
		<path class="st1" d="M29.8,33.9c-0.1,0-0.1,0.1-0.2,0.2c0,0.1,0.1,0.3,0.2,0.3c0.1,0,0.2-0.1,0.2-0.2C30.1,34,29.9,33.9,29.8,33.9
			L29.8,33.9z"/>
		<path class="st1" d="M18.4,17.1c-0.1,0-0.2,0.1-0.2,0.2c0,0.2,0.1,0.3,0.2,0.3c0.1,0,0.1-0.1,0.2-0.2
			C18.6,17.2,18.6,17.1,18.4,17.1L18.4,17.1z"/>
		<path class="st1" d="M28.1,19.7c-0.1,0-0.3,0.1-0.2,0.2c0,0.1,0.1,0.2,0.2,0.3c0.1-0.1,0.2-0.2,0.2-0.3
			C28.4,19.8,28.3,19.7,28.1,19.7L28.1,19.7z"/>
		
			<ellipse transform="matrix(0.9959 -9.053575e-02 9.053575e-02 0.9959 -3.0336 2.5808)" class="st1" cx="26.9" cy="34.7" rx="0" ry="0"/>
		<path class="st1" d="M19.8,31.1c-0.1,0-0.2,0.1-0.2,0.2c0,0.1,0.1,0.3,0.3,0.2c0.1,0,0.1-0.1,0.2-0.2C20,31.2,19.9,31.1,19.8,31.1
			L19.8,31.1z"/>
		<path class="st1" d="M19.9,14c0.1-0.2,0.2-0.3,0.2-0.4c0-0.1-0.1-0.1-0.2-0.2c-0.1,0.1-0.2,0.2-0.2,0.2
			C19.7,13.8,19.8,13.9,19.9,14L19.9,14z"/>
		<path class="st1" d="M29.5,19.5c0.1,0,0.1-0.1,0.3-0.2c-0.1-0.1-0.2-0.2-0.3-0.2c-0.1,0-0.2,0.1-0.2,0.2
			C29.2,19.5,29.3,19.5,29.5,19.5L29.5,19.5z"/>
		<path class="st1" d="M25.8,30.6c0.1,0,0.2-0.1,0.2-0.1c0-0.2-0.1-0.4-0.2-0.3c-0.1,0-0.2,0.1-0.2,0.1
			C25.5,30.4,25.6,30.6,25.8,30.6L25.8,30.6z"/>
		<path class="st1" d="M19,26.2c-0.1,0-0.2,0.1-0.2,0.2c0,0.1,0.1,0.3,0.2,0.2c0.1,0,0.2-0.1,0.3-0.2C19.1,26.3,19,26.2,19,26.2
			L19,26.2z"/>
		<path class="st1" d="M19.8,21.2c-0.1,0-0.2,0.1-0.2,0.2c0,0.1,0.1,0.2,0.2,0.2c0.1,0,0.2-0.1,0.3-0.2C20,21.3,19.9,21.2,19.8,21.2
			L19.8,21.2z"/>
		<polygon class="st1" points="26.7,22.1 26.7,22.1 26.7,22.1 26.7,22.1 26.7,22.1 		"/>
		<ellipse transform="matrix(0.7376 -0.6753 0.6753 0.7376 -7.8956 23.8073)" class="st1" cx="26.7" cy="22.1" rx="0" ry="0"/>
		<path class="st1" d="M20,25.3c0-0.1-0.1-0.1-0.2-0.1c-0.1,0-0.2,0.1-0.2,0.2c0,0.1,0,0.2,0.1,0.4C20,25.6,20.1,25.5,20,25.3
			L20,25.3z"/>
		<path class="st1" d="M18.6,12.3c-0.2,0-0.3,0.1-0.3,0.3c0,0.1,0.1,0.2,0.2,0.2c0.1,0,0.2-0.1,0.2-0.3
			C18.7,12.4,18.6,12.3,18.6,12.3L18.6,12.3z"/>
		<path class="st1" d="M24.7,26.6c-0.1,0-0.2,0.2-0.2,0.2c0.1,0.1,0.2,0.2,0.3,0.2c0,0,0.1-0.1,0.2-0.1
			C24.9,26.7,24.8,26.5,24.7,26.6L24.7,26.6z"/>
		<path class="st1" d="M28.3,19.5c0-0.1,0.1-0.1,0.2-0.2c0-0.1-0.1-0.2-0.2-0.2c-0.1,0-0.2,0.1-0.2,0.2
			C28.1,19.4,28.1,19.5,28.3,19.5L28.3,19.5z"/>
		<path class="st1" d="M17.6,11.8c-0.1,0-0.2,0.1-0.2,0.2c0,0.1,0.1,0.2,0.2,0.2c0.1,0,0.2-0.1,0.3-0.2
			C17.7,11.9,17.7,11.8,17.6,11.8L17.6,11.8z"/>
		<path class="st1" d="M26.3,21.8c-0.1,0.1-0.2,0.2-0.2,0.3c0,0.1,0.1,0.1,0.2,0.1c0.1,0,0.2-0.1,0.2-0.1
			C26.5,21.9,26.4,21.8,26.3,21.8L26.3,21.8z"/>
		<path class="st1" d="M19.3,12.8c-0.2,0-0.2,0.1-0.2,0.3c0,0.1,0,0.3,0.2,0.2c0.1,0,0.2-0.1,0.3-0.3C19.5,12.9,19.4,12.8,19.3,12.8
			L19.3,12.8z"/>
		<path class="st1" d="M22.5,25.3c0,0.1,0.1,0.2,0.2,0.2c0.1,0,0.2-0.1,0.2-0.2c0-0.1-0.1-0.2-0.2-0.3
			C22.6,25.1,22.5,25.2,22.5,25.3L22.5,25.3z"/>
		<path class="st1" d="M24.3,23.6c0,0.1,0.1,0.2,0.2,0.2c0.1,0,0.3-0.1,0.3-0.2c-0.1,0-0.1-0.1-0.2-0.1
			C24.4,23.4,24.3,23.5,24.3,23.6L24.3,23.6z"/>
		<path class="st1" d="M22.5,26.1c-0.1,0.1-0.1,0.2-0.1,0.3c0,0.1,0.1,0.2,0.2,0.2c0.1,0,0.2-0.1,0.2-0.2
			C22.8,26.3,22.7,26.2,22.5,26.1L22.5,26.1z"/>
		<path class="st1" d="M25.5,19.9c0,0.1,0.1,0.2,0.2,0.3c0,0,0.1-0.1,0.3-0.2c-0.1-0.1-0.2-0.2-0.3-0.2
			C25.6,19.7,25.4,19.8,25.5,19.9L25.5,19.9z"/>
		<path class="st1" d="M24.4,19.7c0,0,0.1-0.1,0.3-0.2c-0.1-0.1-0.2-0.2-0.3-0.2c0,0-0.2,0.1-0.2,0.2C24.3,19.5,24.3,19.6,24.4,19.7
			L24.4,19.7z"/>
		<path class="st1" d="M26.5,28.2c0-0.1-0.1-0.2-0.2-0.2c-0.1,0-0.2,0.2-0.2,0.2c0,0.1,0.1,0.2,0.3,0.3
			C26.5,28.4,26.5,28.3,26.5,28.2L26.5,28.2z"/>
		<path class="st1" d="M26.8,29.1c0.1,0,0.2-0.1,0.3-0.2c-0.1-0.1-0.2-0.2-0.3-0.2c-0.1,0-0.2,0.1-0.2,0.2
			C26.7,29,26.7,29.1,26.8,29.1L26.8,29.1z"/>
		<path class="st1" d="M18.5,10.9c-0.1,0-0.2,0.1-0.2,0.2c0,0.1,0.1,0.2,0.2,0.4c0.1-0.2,0.2-0.2,0.2-0.3
			C18.7,11.1,18.7,10.9,18.5,10.9L18.5,10.9z"/>
		<path class="st1" d="M29.4,33.3c0-0.1-0.1-0.2-0.3-0.2c-0.1,0-0.2,0.1-0.1,0.2c0,0.1,0.1,0.2,0.2,0.3
			C29.3,33.5,29.3,33.4,29.4,33.3L29.4,33.3z"/>
		<path class="st1" d="M22,26c0.1,0,0.3-0.1,0.2-0.2c0-0.1-0.1-0.2-0.2-0.3c-0.1,0.1-0.2,0.2-0.2,0.3C21.9,25.9,22,26,22,26L22,26z"
			/>
		<path class="st1" d="M16.8,11.3c0.1-0.1,0.2-0.2,0.2-0.3c0-0.1-0.1-0.3-0.2-0.2c-0.1,0-0.2,0.2-0.2,0.2
			C16.6,11.1,16.7,11.2,16.8,11.3L16.8,11.3z"/>
		<path class="st1" d="M19.9,28.6c-0.1,0-0.2,0.1-0.2,0.2c0,0.1,0.1,0.2,0.2,0.3c0.1-0.2,0.2-0.3,0.2-0.4
			C20.1,28.7,20,28.6,19.9,28.6L19.9,28.6z"/>
		<path class="st1" d="M18.7,28.4c0,0,0.1-0.1,0.2-0.1c0.1-0.2,0-0.3-0.1-0.4c-0.2,0.1-0.2,0.2-0.2,0.3
			C18.5,28.3,18.6,28.4,18.7,28.4L18.7,28.4z"/>
		<path class="st1" d="M18.4,23.2c-0.1,0-0.2,0.1-0.2,0.2c0,0.1,0,0.2,0.1,0.2c0.1,0,0.2-0.1,0.4-0.2C18.5,23.3,18.4,23.2,18.4,23.2
			L18.4,23.2z"/>
		<path class="st1" d="M21.7,27c0,0.1,0.1,0.2,0.2,0.3c0.1-0.1,0.2-0.2,0.3-0.3c0-0.1-0.1-0.2-0.2-0.2C21.8,26.8,21.7,26.8,21.7,27
			L21.7,27z"/>
		<path class="st1" d="M18.7,31.3c0.1,0,0.2-0.1,0.3-0.2c-0.1-0.1-0.2-0.2-0.3-0.2c-0.1,0-0.2,0.1-0.2,0.3
			C18.6,31.2,18.7,31.3,18.7,31.3L18.7,31.3z"/>
		<path class="st1" d="M28.7,30.5c0-0.1-0.1-0.2-0.2-0.2c-0.1,0-0.2,0.1-0.3,0.2c0.2,0.1,0.2,0.2,0.3,0.2
			C28.6,30.7,28.7,30.6,28.7,30.5L28.7,30.5z"/>
		<path class="st1" d="M29.5,32.8c0.1,0,0.2-0.1,0.2-0.2c0-0.1-0.1-0.2-0.2-0.2c-0.1,0-0.2,0.1-0.3,0.2
			C29.3,32.7,29.4,32.8,29.5,32.8L29.5,32.8z"/>
		<path class="st1" d="M30.8,33.7c-0.1,0-0.2,0.1-0.3,0.2c0.2,0.1,0.2,0.2,0.3,0.2c0.1,0,0.2-0.1,0.2-0.2
			C31,33.8,30.9,33.7,30.8,33.7L30.8,33.7z"/>
		<path class="st1" d="M17.6,11.3c0.1,0,0.1-0.1,0.1-0.2c0-0.1-0.1-0.2-0.3-0.2c0,0-0.1,0.1-0.1,0.2C17.3,11.2,17.5,11.4,17.6,11.3
			L17.6,11.3z"/>
		<path class="st1" d="M18.5,24.8c0.1,0,0.2-0.1,0.2-0.2c0-0.1-0.1-0.2-0.2-0.3c-0.1,0.1-0.2,0.2-0.2,0.3
			C18.2,24.7,18.4,24.8,18.5,24.8L18.5,24.8z"/>
		<path class="st1" d="M18.6,13.8c-0.1,0-0.2,0.1-0.2,0.2c0,0.2,0.1,0.3,0.2,0.3c0.1,0,0.1-0.1,0.2-0.2
			C18.7,13.9,18.7,13.8,18.6,13.8L18.6,13.8z"/>
		<path class="st1" d="M25.6,22.3c-0.1,0.2-0.2,0.2-0.2,0.3c0,0.1,0.1,0.2,0.2,0.2c0.1,0,0.2-0.1,0.2-0.2
			C25.8,22.5,25.7,22.4,25.6,22.3L25.6,22.3z"/>
		<path class="st1" d="M18.3,10.1c0,0.1,0.1,0.2,0.2,0.2c0.1,0,0.2-0.1,0.3-0.2C18.7,10,18.6,10,18.5,10C18.4,9.9,18.3,10,18.3,10.1
			L18.3,10.1z"/>
		<path class="st1" d="M17.9,15.1c0,0-0.2,0.1-0.2,0.2c0,0.1,0,0.2,0.2,0.2c0.1,0,0.1-0.1,0.3-0.2C18.1,15.2,18,15.1,17.9,15.1
			L17.9,15.1z"/>
		<path class="st1" d="M18.1,26.4c0-0.1-0.1-0.3-0.2-0.3c-0.1,0-0.2,0.1-0.2,0.2c0,0.1,0.1,0.2,0.2,0.3C18,26.6,18.1,26.5,18.1,26.4
			L18.1,26.4z"/>
		<path class="st1" d="M28.1,31.5c0.1,0,0.2-0.1,0.3-0.2c-0.1-0.1-0.2-0.2-0.3-0.2c-0.1,0-0.2,0.1-0.2,0.2
			C27.9,31.4,28,31.5,28.1,31.5L28.1,31.5z"/>
		<path class="st1" d="M27.3,19.5c0.1,0,0.1-0.1,0.2-0.2c-0.1-0.1-0.2-0.2-0.3-0.2c0,0-0.1,0.1-0.1,0.2
			C27.1,19.4,27.2,19.5,27.3,19.5L27.3,19.5z"/>
		<path class="st1" d="M26.2,29.3c-0.1,0-0.2,0.1-0.2,0.2c0,0.1,0.1,0.2,0.2,0.2c0.1,0,0.1-0.1,0.3-0.2
			C26.4,29.4,26.3,29.3,26.2,29.3L26.2,29.3z"/>
		<path class="st1" d="M29.6,19.9c0,0.1,0.1,0.2,0.2,0.3c0.1-0.2,0.2-0.2,0.2-0.3c0-0.1-0.1-0.2-0.2-0.2
			C29.7,19.7,29.6,19.8,29.6,19.9L29.6,19.9z"/>
		<path class="st1" d="M30.1,19.4c0.1,0.1,0.2,0.2,0.4,0.1c0.1-0.1,0.1-0.2,0-0.3C30.4,19.1,30.3,19.2,30.1,19.4L30.1,19.4z"/>
		<path class="st1" d="M26.9,19.8c-0.1,0-0.2,0.1-0.2,0.2c0,0.1,0.1,0.2,0.2,0.2c0.1,0,0.1-0.1,0.2-0.1C27.1,19.9,27,19.8,26.9,19.8
			L26.9,19.8z"/>
		<path class="st1" d="M25.9,27.3c0-0.1-0.1-0.3-0.2-0.2c-0.1,0-0.1,0.1-0.1,0.2c0,0.1,0.1,0.2,0.2,0.3
			C25.8,27.4,25.9,27.3,25.9,27.3L25.9,27.3z"/>
		<path class="st1" d="M28.3,34.9c0,0,0.1,0.2,0.2,0.2c0.1,0,0.1-0.1,0.3-0.2c-0.1-0.1-0.2-0.2-0.3-0.2
			C28.5,34.7,28.4,34.8,28.3,34.9L28.3,34.9z"/>
		<path class="st1" d="M19.8,18.3c0,0.1,0.1,0.1,0.2,0.2c0.1-0.1,0.2-0.1,0.2-0.2c0-0.1-0.1-0.2-0.2-0.3
			C19.9,18.1,19.8,18.2,19.8,18.3L19.8,18.3z"/>
		<path class="st1" d="M30,34.8c0,0.1,0.1,0.1,0.2,0.2c0.1-0.1,0.2-0.1,0.2-0.2c0-0.1-0.1-0.2-0.2-0.3C30.1,34.7,30,34.8,30,34.8
			L30,34.8z"/>
		<path class="st1" d="M17.6,32.6c0.1,0,0.2-0.1,0.3-0.2c-0.1-0.1-0.2-0.2-0.2-0.2c-0.1,0-0.2,0.1-0.2,0.2
			C17.4,32.5,17.4,32.6,17.6,32.6L17.6,32.6z"/>
		<path class="st1" d="M19.2,27.2c0,0-0.2,0-0.2,0c-0.1,0.1-0.1,0.2,0.1,0.4C19.3,27.4,19.3,27.3,19.2,27.2L19.2,27.2z"/>
		<path class="st1" d="M21.6,33.9c-0.2,0-0.2,0.1-0.2,0.3c0.2,0,0.3,0.1,0.4-0.1C21.8,34,21.7,33.9,21.6,33.9L21.6,33.9z"/>
		<path class="st1" d="M17.9,32.9c-0.1,0-0.2,0.1-0.2,0.2c0,0.1,0.1,0.1,0.2,0.3c0.1-0.1,0.2-0.2,0.2-0.3C18.1,33,18,32.9,17.9,32.9
			L17.9,32.9z"/>
		<path class="st1" d="M19.1,23.8c0,0-0.2,0.1-0.2,0.1c0,0.2,0,0.3,0.3,0.3C19.3,24,19.3,23.9,19.1,23.8L19.1,23.8z"/>
		<path class="st1" d="M17.4,20.8c0,0.1,0.1,0.2,0.1,0.2c0.1,0,0.2-0.1,0.3-0.2c-0.1-0.1-0.2-0.2-0.3-0.2
			C17.4,20.5,17.4,20.7,17.4,20.8L17.4,20.8z"/>
		<path class="st1" d="M27.1,33.2c0.1,0,0.1-0.1,0.2-0.2c-0.1-0.1-0.2-0.2-0.3-0.2c0,0-0.1,0.1-0.1,0.2C26.9,33.1,27,33.2,27.1,33.2
			L27.1,33.2z"/>
		<path class="st1" d="M27.9,20.7c0,0.1,0,0.2,0.2,0.2c0-0.1,0.1-0.2,0.1-0.2c0-0.1-0.1-0.2-0.2-0.2C27.9,20.5,27.9,20.6,27.9,20.7
			L27.9,20.7z"/>
		<path class="st1" d="M17.4,14.3c0,0.1,0.1,0.2,0.2,0.3c0.1-0.2,0.2-0.2,0.2-0.3c0,0-0.1-0.1-0.1-0.2C17.5,14,17.4,14.1,17.4,14.3
			L17.4,14.3z"/>
		<path class="st1" d="M26.7,32.2c0.1,0,0.1-0.1,0.2-0.2c-0.1-0.1-0.2-0.2-0.3-0.2c0,0-0.1,0.1-0.1,0.2
			C26.4,32.1,26.6,32.2,26.7,32.2L26.7,32.2z"/>
		<path class="st1" d="M25.8,28.8c0-0.1-0.1-0.2-0.2-0.3c-0.1,0.2-0.2,0.3-0.1,0.4c0,0.1,0.1,0.1,0.2,0.2
			C25.7,28.9,25.8,28.8,25.8,28.8L25.8,28.8z"/>
		<path class="st1" d="M24.6,29c0.1,0,0.2-0.1,0.3-0.2c-0.1-0.1-0.2-0.2-0.3-0.2c-0.1,0-0.2,0-0.2,0.2C24.4,28.9,24.5,29,24.6,29
			L24.6,29z"/>
		<path class="st1" d="M26.6,21.4c0,0.1,0.1,0.2,0.2,0.2c0.1,0,0.2-0.1,0.3-0.2c-0.1-0.1-0.2-0.2-0.3-0.2
			C26.7,21.1,26.6,21.2,26.6,21.4L26.6,21.4z"/>
		<path class="st1" d="M18.8,22.1c0-0.1-0.1-0.1-0.2-0.2c-0.1,0.2-0.1,0.2-0.2,0.3c0,0.1,0.1,0.2,0.1,0.2
			C18.7,22.4,18.9,22.3,18.8,22.1L18.8,22.1z"/>
		<ellipse transform="matrix(0.3213 -0.947 0.947 0.3213 -11.4176 38.0123)" class="st1" cx="20.8" cy="27" rx="0" ry="0"/>
		<path class="st1" d="M27.6,29.2c0.1-0.1,0.2-0.2,0.2-0.3c0-0.1-0.1-0.2-0.2-0.2c-0.1,0-0.2,0.1-0.2,0.2
			C27.4,29,27.5,29.1,27.6,29.2L27.6,29.2z"/>
		<path class="st1" d="M19.7,14.8c0,0.1,0.1,0.1,0.2,0.3c0.1-0.1,0.2-0.2,0.2-0.3c0-0.1-0.1-0.2-0.2-0.2
			C19.8,14.6,19.7,14.7,19.7,14.8L19.7,14.8z"/>
		<path class="st1" d="M27.2,20.8c0.1,0,0.2-0.1,0.3-0.2c-0.1-0.1-0.2-0.2-0.3-0.2c-0.1,0-0.1,0.1-0.2,0.2
			C27.1,20.7,27.1,20.8,27.2,20.8L27.2,20.8z"/>
		<path class="st1" d="M17.7,17.2c-0.1,0-0.2,0.1-0.2,0.2c0,0.1,0.1,0.1,0.2,0.3c0.1-0.1,0.2-0.2,0.2-0.3
			C17.8,17.3,17.7,17.2,17.7,17.2L17.7,17.2z"/>
		<path class="st1" d="M19.9,19.1c0,0-0.1,0.1-0.2,0.1c0,0.1,0.1,0.3,0.2,0.3c0.1,0,0.1-0.1,0.2-0.2C20.1,19.2,20,19.1,19.9,19.1
			L19.9,19.1z"/>
		<path class="st1" d="M28.8,20.3c0,0.1,0,0.2,0.1,0.2c0.1,0,0.2-0.1,0.2-0.2c0-0.1-0.1-0.1-0.2-0.3C28.8,20.2,28.8,20.3,28.8,20.3
			L28.8,20.3z"/>
		<path class="st1" d="M26.4,20.7c0.1-0.1,0.1-0.1,0.3-0.2c-0.1-0.1-0.2-0.2-0.3-0.2c0,0-0.2,0.1-0.1,0.2
			C26.3,20.6,26.4,20.6,26.4,20.7L26.4,20.7z"/>
		<path class="st1" d="M19.8,16.2c0,0.1,0.1,0.1,0.1,0.2c0.2-0.1,0.2-0.2,0.2-0.3c0-0.1-0.1-0.2-0.2-0.2
			C19.8,15.9,19.8,16,19.8,16.2L19.8,16.2z"/>
		<path class="st1" d="M19.7,24.7c0.1,0,0.1-0.1,0.2-0.2c-0.1-0.1-0.2-0.2-0.3-0.2c0,0-0.1,0.1-0.1,0.2
			C19.4,24.6,19.5,24.8,19.7,24.7L19.7,24.7z"/>
		<path class="st1" d="M24.5,25.8c0,0.1,0.1,0.2,0.2,0.2c0.1,0,0.2-0.1,0.2-0.2c0-0.1-0.1-0.2-0.2-0.3
			C24.6,25.7,24.5,25.8,24.5,25.8L24.5,25.8z"/>
		<path class="st1" d="M19.2,32.9c-0.1-0.1-0.2-0.2-0.3-0.2c-0.1,0-0.2,0.1-0.2,0.2c0,0.1,0.1,0.2,0.2,0.2
			C19,33.1,19.1,33,19.2,32.9L19.2,32.9z"/>
		<ellipse transform="matrix(0.7182 -0.6959 0.6959 0.7182 -17.8605 23.9121)" class="st1" cx="20.6" cy="34" rx="0" ry="0"/>
		<path class="st1" d="M20.8,33.7c-0.1,0-0.2,0.1-0.2,0.2c0,0,0,0.1,0,0.1c0,0,0.1,0,0.1,0c0.1,0,0.2,0,0.2-0.2
			C20.9,33.8,20.8,33.7,20.8,33.7L20.8,33.7z"/>
		<path class="st1" d="M17.5,16.1c-0.1,0-0.1,0.1-0.1,0.2c0,0.1,0,0.2,0.1,0.3c0.1-0.1,0.2-0.2,0.2-0.2c0-0.1,0-0.2-0.1-0.2
			C17.7,16.1,17.6,16.1,17.5,16.1L17.5,16.1z"/>
		<path class="st1" d="M17.7,25c-0.1,0-0.2,0.1-0.2,0.2c0,0.1,0.1,0.1,0.2,0.3c0.1-0.1,0.2-0.2,0.2-0.3C17.9,25.1,17.8,25,17.7,25
			L17.7,25z"/>
		<path class="st1" d="M25.2,27.6c-0.1,0.1-0.2,0.2-0.2,0.3c0,0.1,0.1,0.1,0.2,0.2c0.1-0.1,0.1-0.1,0.2-0.2
			C25.4,27.8,25.3,27.8,25.2,27.6L25.2,27.6z"/>
		<path class="st1" d="M31,34.6c-0.1,0-0.2,0.1-0.2,0.2c0,0.1,0.1,0.1,0.2,0.2c0.1-0.1,0.2-0.1,0.2-0.2C31.2,34.7,31.1,34.6,31,34.6
			L31,34.6z"/>
		<path class="st1" d="M17.4,29.2c-0.1,0-0.2,0.1-0.2,0.2c0,0.1,0.1,0.1,0.2,0.3c0.1-0.2,0.1-0.2,0.1-0.3
			C17.6,29.2,17.5,29.1,17.4,29.2L17.4,29.2z"/>
		<path class="st1" d="M17.7,9.5c0,0.1,0.1,0.2,0.2,0.2c0.1,0,0.1-0.1,0.2-0.2C18,9.4,18,9.3,17.9,9.3C17.8,9.3,17.7,9.4,17.7,9.5
			L17.7,9.5z"/>
		<path class="st1" d="M15.3,10.5c0.1,0,0.1-0.1,0.3-0.1c-0.1-0.1-0.2-0.2-0.3-0.2c-0.1,0-0.2,0.1-0.2,0.2
			C15.1,10.4,15.2,10.5,15.3,10.5L15.3,10.5z"/>
		<path class="st1" d="M28.3,29.8c-0.1-0.1-0.2-0.2-0.3-0.2c-0.1,0-0.2,0.1-0.2,0.2c0,0.1,0.1,0.2,0.2,0.2
			C28.1,30,28.1,29.9,28.3,29.8L28.3,29.8z"/>
		<path class="st1" d="M26.4,27.2c-0.1,0-0.2,0.1-0.2,0.1c0,0.1,0.1,0.2,0.2,0.3c0.1-0.1,0.2-0.2,0.2-0.2
			C26.6,27.3,26.5,27.2,26.4,27.2L26.4,27.2z"/>
		<path class="st1" d="M17,33.6c-0.1,0-0.2,0.1-0.1,0.2c0,0.1,0.1,0.2,0.2,0.3c0.1-0.2,0.2-0.2,0.2-0.3C17.2,33.7,17.1,33.6,17,33.6
			L17,33.6z"/>
		<path class="st1" d="M17.6,12.9c-0.1,0-0.2,0.1-0.2,0.2c0,0.1,0.1,0.2,0.2,0.2c0,0,0.1-0.1,0.3-0.1C17.7,13,17.6,12.9,17.6,12.9
			L17.6,12.9z"/>
		<path class="st1" d="M23.3,25.8c0,0-0.1,0.1-0.1,0.2c0,0.1,0.1,0.1,0.2,0.3c0.1-0.1,0.2-0.2,0.2-0.3
			C23.5,25.9,23.4,25.8,23.3,25.8L23.3,25.8z"/>
		<path class="st1" d="M23.6,24.6c0-0.1-0.1-0.1-0.2-0.2c0,0-0.1,0.1-0.1,0.2c0,0.1,0.1,0.1,0.2,0.3C23.5,24.7,23.6,24.7,23.6,24.6
			L23.6,24.6z"/>
		<path class="st1" d="M28.9,31.7c0,0.1,0.1,0.3,0.2,0.2c0.1,0,0.1-0.1,0.2-0.2c-0.1-0.1-0.2-0.2-0.3-0.2
			C29,31.5,28.9,31.6,28.9,31.7L28.9,31.7z"/>
		<path class="st1" d="M28.5,32.3c0,0.1,0,0.2,0.2,0.2c0.1,0,0.1-0.1,0.3-0.2c-0.1-0.1-0.2-0.2-0.3-0.2
			C28.6,32.1,28.5,32.2,28.5,32.3L28.5,32.3z"/>
		<path class="st1" d="M19.4,33.7c0,0-0.2,0.1-0.2,0.1c0,0.1,0.1,0.2,0.2,0.2c0.1,0,0.1-0.1,0.3-0.1C19.5,33.9,19.5,33.8,19.4,33.7
			L19.4,33.7z"/>
		<path class="st1" d="M18.9,20.8c-0.1,0-0.1,0.1-0.1,0.2c0,0.1,0.1,0.2,0.2,0.3c0.1-0.2,0.1-0.2,0.2-0.3
			C19.1,20.8,19,20.7,18.9,20.8L18.9,20.8z"/>
		<path class="st1" d="M29.4,34.6c-0.1,0-0.1,0.1-0.2,0.2c0.1,0.1,0.2,0.2,0.2,0.2c0.1,0,0.1-0.1,0.2-0.2
			C29.6,34.8,29.5,34.6,29.4,34.6L29.4,34.6z"/>
		<path class="st1" d="M18.7,25.6c0-0.1-0.1-0.1-0.2-0.3c-0.1,0.1-0.2,0.2-0.2,0.3c0,0.1,0.1,0.2,0.2,0.2
			C18.6,25.8,18.7,25.7,18.7,25.6L18.7,25.6z"/>
		<path class="st1" d="M24.9,23.1c0,0.1,0.1,0.2,0.2,0.2c0.1,0,0.1-0.1,0.2-0.2c-0.1-0.1-0.2-0.2-0.3-0.2
			C25,22.9,24.9,23.1,24.9,23.1L24.9,23.1z"/>
		<path class="st1" d="M17.6,24.3c0.1,0,0.1-0.1,0.2-0.2c-0.1-0.1-0.2-0.2-0.2-0.2c-0.1,0-0.2,0.1-0.2,0.2
			C17.4,24.2,17.6,24.3,17.6,24.3L17.6,24.3z"/>
		<path class="st1" d="M18.7,32.2c0.1,0,0.1-0.1,0.2-0.2c-0.1-0.1-0.2-0.2-0.2-0.2c-0.1,0-0.1,0.1-0.2,0.2
			C18.4,32.1,18.6,32.3,18.7,32.2L18.7,32.2z"/>
		<path class="st1" d="M17.6,27c-0.1,0-0.2,0.1-0.2,0.2c0,0.1,0.1,0.2,0.2,0.3c0.1-0.1,0.2-0.2,0.2-0.2C17.8,27.1,17.7,27,17.6,27
			L17.6,27z"/>
		<path class="st1" d="M25.1,19.3c0,0.1,0.1,0.2,0.2,0.2c0.1,0,0.1-0.1,0.1-0.1c0-0.1-0.1-0.2-0.2-0.3
			C25.2,19.2,25.1,19.2,25.1,19.3L25.1,19.3z"/>
		<path class="st1" d="M17.4,10.3c0,0.1,0.1,0.2,0.2,0.2c0.1,0,0.1-0.1,0.3-0.2c-0.1-0.1-0.2-0.2-0.3-0.2
			C17.5,10.1,17.4,10.2,17.4,10.3L17.4,10.3z"/>
		<path class="st1" d="M20,30.3c0.1-0.1,0.2-0.1,0.2-0.2c0-0.1-0.1-0.1-0.2-0.3C20,30,19.9,30,19.9,30.1C19.9,30.2,20,30.2,20,30.3
			L20,30.3z"/>
		<path class="st1" d="M19.2,29.2c0.1-0.1,0.1-0.1,0.2-0.2c0-0.1-0.1-0.2-0.2-0.3C19.1,28.9,19,28.9,19,29
			C19,29.1,19.1,29.2,19.2,29.2L19.2,29.2z"/>
		<path class="st1" d="M31.9,34.9c0,0.1,0.1,0.2,0.2,0.2c0.1,0,0.1-0.1,0.1-0.1c0-0.1-0.1-0.2-0.2-0.3C32,34.8,32,34.8,31.9,34.9
			L31.9,34.9z"/>
		<path class="st1" d="M26.8,28c0,0.1,0.1,0.2,0.2,0.2c0.1,0,0.1-0.1,0.2-0.2c-0.1-0.1-0.2-0.2-0.3-0.2C27,27.9,26.8,28,26.8,28
			L26.8,28z"/>
		<path class="st1" d="M18.8,19.2c0,0.1,0.1,0.2,0.2,0.2c0.1,0,0.1-0.1,0.1-0.2c0-0.1-0.1-0.2-0.2-0.3
			C18.9,19.1,18.8,19.2,18.8,19.2L18.8,19.2z"/>
		<path class="st1" d="M19,9.6c0.1,0,0.1-0.1,0.1-0.2c0-0.1-0.1-0.2-0.2-0.3c-0.1,0.1-0.2,0.2-0.2,0.3C18.8,9.5,18.8,9.6,19,9.6
			L19,9.6z"/>
		<path class="st1" d="M19.8,20.4c0,0,0.1,0.1,0.1,0.1c0.1-0.1,0.2-0.1,0.2-0.2c0,0-0.1-0.1-0.2-0.2C19.9,20.2,19.8,20.3,19.8,20.4
			L19.8,20.4z"/>
		<path class="st1" d="M16.9,9.7c0,0,0.1-0.1,0.2-0.1C17,9.5,17,9.4,16.9,9.4c-0.1,0-0.1,0.1-0.2,0.2C16.8,9.6,16.8,9.7,16.9,9.7
			L16.9,9.7z"/>
		<path class="st1" d="M30.8,19.4c0,0.1,0.1,0.2,0.2,0.2c0,0,0.1-0.1,0.2-0.1c-0.1-0.1-0.2-0.2-0.2-0.2
			C30.9,19.3,30.8,19.4,30.8,19.4L30.8,19.4z"/>
		<path class="st1" d="M19.1,18c0,0.1,0.1,0.1,0.1,0.2c0.1-0.1,0.2-0.2,0.2-0.2c0-0.1-0.1-0.1-0.2-0.1C19.2,17.9,19.1,18,19.1,18
			L19.1,18z"/>
		<polygon class="st1" points="26.9,34.7 26.9,34.7 26.9,34.7 26.9,34.7 26.9,34.7 		"/>
		
			<ellipse transform="matrix(0.9964 -8.444308e-02 8.444308e-02 0.9964 -2.8364 2.3982)" class="st1" cx="26.9" cy="34.7" rx="0" ry="0"/>
		<path class="st1" d="M29.9,33.3c0,0,0.1,0.1,0.2,0.1c0.1,0,0.1-0.1,0.2-0.1c-0.1-0.1-0.2-0.2-0.2-0.2C30,33.1,29.9,33.2,29.9,33.3
			L29.9,33.3z"/>
		<path class="st1" d="M26.2,19.5c0.1,0,0.1-0.1,0.1-0.2c0-0.1-0.1-0.2-0.1-0.3c-0.1,0.1-0.2,0.2-0.2,0.2
			C26,19.4,26.1,19.5,26.2,19.5L26.2,19.5z"/>
		<path class="st1" d="M28.3,31.3C28.3,31.3,28.3,31.3,28.3,31.3C28.3,31.3,28.3,31.3,28.3,31.3L28.3,31.3L28.3,31.3z"/>
		<path class="st1" d="M28.8,30.9c-0.1,0-0.1,0.1-0.1,0.2c0,0.1,0,0.1,0.1,0.2c0.1,0,0.2,0,0.2-0.1c0-0.1,0.1-0.2,0-0.2
			C29,30.9,28.8,30.9,28.8,30.9L28.8,30.9z"/>
		<path class="st1" d="M26.1,31.2c0,0.1,0.1,0.2,0.2,0.2c0,0,0.1-0.1,0.2-0.2c-0.1-0.1-0.2-0.2-0.2-0.2C26.2,31,26,31.2,26.1,31.2
			L26.1,31.2z"/>
		<path class="st1" d="M15,9.4c-0.1,0.1-0.1,0.2-0.2,0.2c0,0.1,0.1,0.2,0.2,0.2c0.1,0,0.1-0.1,0.1-0.2C15.2,9.5,15.1,9.5,15,9.4
			L15,9.4z"/>
		<path class="st1" d="M24.3,27.2c-0.1,0-0.1,0.1-0.1,0.2c0,0.1,0.1,0.2,0.2,0.2c0.1,0,0.1-0.1,0.2-0.2
			C24.4,27.3,24.4,27.2,24.3,27.2L24.3,27.2z"/>
		<path class="st1" d="M24,24.3c0.1,0,0.1-0.1,0.2-0.2C24.1,24.1,24,24,23.9,24c-0.1,0-0.1,0.1-0.1,0.2C23.8,24.3,23.9,24.4,24,24.3
			L24,24.3z"/>
		<path class="st1" d="M19.1,22.8c0,0.1,0.1,0.2,0.2,0.2c0,0,0.1-0.1,0.2-0.1c-0.1-0.1-0.2-0.2-0.3-0.2
			C19.2,22.6,19.1,22.8,19.1,22.8L19.1,22.8z"/>
		<polygon class="st1" points="20.6,34 20.6,34 20.6,34 20.6,34 		"/>
		<path class="st1" d="M20.1,10.5c0-0.1-0.1-0.1-0.1-0.2c-0.1,0.1-0.2,0.1-0.2,0.2c0,0.1,0.1,0.1,0.2,0.3
			C20.1,10.6,20.1,10.5,20.1,10.5L20.1,10.5z"/>
		<path class="st1" d="M17.8,18.3c0,0.1-0.1,0.1-0.1,0.2c0,0.1,0.1,0.2,0.1,0.3c0.1-0.2,0.2-0.2,0.2-0.3
			C18,18.4,17.9,18.4,17.8,18.3L17.8,18.3z"/>
		<path class="st1" d="M19.9,22.3c-0.1,0-0.2,0.1-0.2,0.2c0,0.1,0.1,0.1,0.2,0.2c0,0,0.1-0.1,0.2-0.2C20,22.4,20,22.3,19.9,22.3
			L19.9,22.3z"/>
		<path class="st1" d="M26.6,30.3c0,0.1,0.1,0.1,0.2,0.2c0.1-0.1,0.1-0.1,0.1-0.2c0-0.1-0.1-0.1-0.2-0.2
			C26.7,30.2,26.6,30.2,26.6,30.3L26.6,30.3z"/>
		<path class="st1" d="M18.2,28.9C18.1,28.9,18,29,18,29.1c0,0.1,0.1,0.1,0.1,0.2c0.1-0.1,0.1-0.1,0.2-0.2
			C18.3,29,18.2,28.9,18.2,28.9L18.2,28.9z"/>
		<path class="st1" d="M16,9.6c0.1,0,0.1-0.1,0.2-0.2C16.1,9.4,16,9.3,16,9.3c0,0-0.1,0.1-0.2,0.2C15.9,9.5,15.9,9.6,16,9.6L16,9.6z
			"/>
		<path class="st1" d="M19.8,32.4c0,0.1,0.1,0.2,0.2,0.2c0.1,0,0.1-0.1,0.1-0.2c0-0.1-0.1-0.1-0.2-0.3
			C19.8,32.2,19.8,32.3,19.8,32.4L19.8,32.4z"/>
		<path class="st1" d="M17.3,30.4c0,0.1,0.1,0.2,0.2,0.2c0.1,0,0.1-0.1,0.1-0.2c0-0.1-0.1-0.1-0.2-0.3
			C17.4,30.3,17.3,30.3,17.3,30.4L17.3,30.4z"/>
		<path class="st1" d="M32.4,34.5c0,0,0.1,0.2,0.2,0.1c0.1,0,0.2-0.1,0.2-0.2c0,0-0.1-0.1-0.2-0.2C32.5,34.4,32.4,34.5,32.4,34.5
			L32.4,34.5z"/>
		<path class="st1" d="M20.2,12.7c0,0-0.1-0.1-0.2-0.2c-0.1,0.1-0.2,0.2-0.1,0.2c0,0.1,0.1,0.1,0.1,0.2
			C20.1,12.8,20.2,12.8,20.2,12.7L20.2,12.7z"/>
		<path class="st1" d="M20.2,11.7c-0.1-0.1-0.2-0.2-0.2-0.2c0,0-0.1,0.1-0.2,0.1c0,0.1,0,0.2,0.2,0.2C20,11.9,20.1,11.8,20.2,11.7
			L20.2,11.7z"/>
		<path class="st1" d="M19.4,10.4c-0.1,0-0.2,0-0.2,0.2c0,0.1,0.1,0.1,0.2,0.3c0.1-0.1,0.1-0.2,0.2-0.3
			C19.5,10.5,19.5,10.4,19.4,10.4L19.4,10.4z"/>
		<path class="st1" d="M14.1,9.3c-0.1,0-0.2,0-0.2,0.2c0,0.1,0.1,0.1,0.2,0.3c0.1-0.1,0.2-0.2,0.2-0.3C14.2,9.4,14.1,9.3,14.1,9.3
			L14.1,9.3z"/>
		<path class="st1" d="M19.4,25.1c0-0.1-0.1-0.2-0.1-0.2c-0.1,0-0.1,0.1-0.2,0.2c0.1,0.1,0.2,0.2,0.2,0.2
			C19.3,25.2,19.4,25.1,19.4,25.1L19.4,25.1z"/>
		<path class="st1" d="M19.3,16.5c-0.1-0.1-0.1-0.2-0.2-0.2c-0.1,0-0.2,0.1-0.2,0.2c0,0.1,0.1,0.2,0.2,0.2
			C19.1,16.7,19.2,16.6,19.3,16.5L19.3,16.5z"/>
		<path class="st1" d="M19.2,15.1c0-0.1-0.1-0.2-0.1-0.3C18.9,15,18.9,15,18.9,15c0,0.1,0.1,0.2,0.1,0.2
			C19,15.2,19.2,15.2,19.2,15.1L19.2,15.1z"/>
		<path class="st1" d="M27.5,30.5c0.1,0,0.1-0.1,0.3-0.2c-0.1-0.1-0.2-0.2-0.2-0.2c-0.1,0-0.2,0.1-0.2,0.2
			C27.4,30.4,27.5,30.5,27.5,30.5L27.5,30.5z"/>
		<path class="st1" d="M21.5,26.5c0.1,0,0.1-0.1,0.1-0.1c0-0.1-0.1-0.2-0.1-0.3c-0.1,0.1-0.2,0.2-0.2,0.2
			C21.3,26.4,21.4,26.5,21.5,26.5L21.5,26.5z"/>
		<path class="st1" d="M17.5,19.7c0,0.1,0.1,0.1,0.2,0.2c0-0.1,0.1-0.1,0.1-0.2c0-0.1-0.1-0.1-0.2-0.2
			C17.5,19.5,17.5,19.6,17.5,19.7L17.5,19.7z"/>
		<path class="st1" d="M16,34.5c0,0-0.1-0.1-0.2-0.1c-0.2,0.1-0.2,0.2-0.1,0.4C16,34.7,16.1,34.7,16,34.5L16,34.5z"/>
		<path class="st1" d="M17.6,28.2c-0.1,0-0.2,0.1-0.2,0.2c0,0,0.1,0.1,0.1,0.3c0.1-0.1,0.2-0.2,0.2-0.3
			C17.7,28.3,17.6,28.2,17.6,28.2L17.6,28.2z"/>
		<path class="st1" d="M23.9,27.9c0,0.1-0.1,0.1-0.1,0.2c0,0.1,0.1,0.2,0.1,0.2c0.1,0,0.1-0.1,0.2-0.2C24,28,23.9,28,23.9,27.9
			L23.9,27.9z"/>
		<path class="st1" d="M20,23.7c0.1-0.1,0.1-0.1,0.2-0.2c0,0-0.1-0.1-0.2-0.2c-0.1,0.1-0.2,0.2-0.2,0.2C19.8,23.6,19.9,23.6,20,23.7
			L20,23.7z"/>
		<path class="st1" d="M18.1,27.9c0,0,0.1-0.1,0.2-0.1c-0.1-0.1-0.1-0.2-0.2-0.2c-0.1,0-0.1,0.1-0.2,0.1
			C18,27.8,18.1,27.8,18.1,27.9L18.1,27.9z"/>
		<path class="st1" d="M19,11.7c0,0.1,0.1,0.2,0.1,0.2c0.1,0,0.1-0.1,0.3-0.1c-0.1-0.1-0.2-0.2-0.2-0.2C19.1,11.5,19,11.6,19,11.7
			L19,11.7z"/>
		<path class="st1" d="M25.6,26.4c0-0.1-0.1-0.2-0.2-0.2c-0.1,0-0.1,0.1-0.1,0.2c0,0.1,0.1,0.1,0.2,0.2
			C25.5,26.5,25.6,26.4,25.6,26.4L25.6,26.4z"/>
		<path class="st1" d="M18.5,20.1c0-0.1-0.1-0.1-0.2-0.2c0,0.1-0.1,0.1-0.1,0.2c0,0.1,0.1,0.1,0.2,0.3
			C18.4,20.2,18.5,20.1,18.5,20.1L18.5,20.1z"/>
		<path class="st1" d="M14.1,9.9c0,0.1-0.1,0.1-0.1,0.2c0,0.1,0.1,0.1,0.2,0.3c0.1-0.1,0.1-0.2,0.1-0.3C14.3,10,14.2,10,14.1,9.9
			L14.1,9.9z"/>
		<path class="st1" d="M23.9,25.6c0-0.1,0.1-0.1,0.1-0.2c0,0-0.1-0.1-0.2-0.2c-0.1,0.1-0.1,0.2-0.1,0.2
			C23.7,25.5,23.8,25.6,23.9,25.6L23.9,25.6z"/>
	</g>
	<path class="st0" d="M49.2,26.1c-0.7,0.8-1.6,3.3-3.2,5.2c0.7,0.9,1.8,1.9,2.4,2.3c0.7,0.4,2.4,0.7,3.4,0.8v0.8h-5.9l-1.7-2.1
		c-1.2,1.2-2.7,2.5-4.9,2.5c-2.4,0-4.8-1.2-4.8-4.2c0-2.3,1.4-3.8,4.2-5.6c-1.3-2-1.8-3-1.8-4.2c0-2.3,2-3.9,4.3-3.9
		c2.4,0,3.4,1.7,3.4,3.3c0,1.8-1.3,3.1-3.3,4.3c1.5,2.3,2.5,3.4,4,5.3c1.1-1.5,2-3.3,2-4.5c0-0.5-0.8-0.7-2.1-1v-0.8h7.2v0.8
		C51.1,25.3,49.8,25.4,49.2,26.1L49.2,26.1z M39.2,26.4c-1.5,0.9-2.1,2.3-2.1,4c0,2,1.2,3.5,3.3,3.5c1.3,0,2.4-0.5,3.2-1.5
		C42.3,30.5,40.3,28.1,39.2,26.4L39.2,26.4z M41.4,18.7c-1.7,0-2,1.6-2,2.2c0,0.9,0.4,2,1.6,3.6c1.6-1,2.3-2,2.3-3.5
		C43.3,19.6,42.5,18.7,41.4,18.7L41.4,18.7z"/>
	<path class="st1" d="M43.3,27.7C43.3,27.7,43.3,27.7,43.3,27.7C43.3,27.7,43.3,27.7,43.3,27.7L43.3,27.7L43.3,27.7z"/>
	<path class="st1" d="M37.3,33.3c0.2,0,0.3-0.1,0.3-0.3c0-0.2-0.2-0.3-0.3-0.3c-0.1,0-0.3,0.2-0.3,0.3C37,33.2,37.1,33.3,37.3,33.3
		L37.3,33.3z"/>
	<path class="st1" d="M45.4,31.5c0-0.1-0.2-0.3-0.3-0.3c-0.1,0-0.2,0.2-0.2,0.3c0,0.1,0.1,0.3,0.2,0.3
		C45.3,31.8,45.4,31.6,45.4,31.5L45.4,31.5z"/>
	<path class="st1" d="M39.7,34.7c-0.3,0-0.3,0.1-0.3,0.5c0.3,0,0.5-0.1,0.5-0.3C39.9,34.8,39.8,34.7,39.7,34.7L39.7,34.7z"/>
	<path class="st1" d="M42.9,28c0-0.2-0.1-0.2-0.3-0.2c-0.2,0-0.3,0.1-0.3,0.2c0,0.2,0.2,0.3,0.3,0.3C42.8,28.3,42.9,28.2,42.9,28
		L42.9,28z"/>
	<polygon class="st1" points="36.9,29.3 36.9,29.3 36.9,29.3 36.9,29.3 	"/>
	<path class="st1" d="M45.8,32.4c0.1,0,0.3-0.1,0.3-0.2c0-0.2-0.1-0.3-0.3-0.3c-0.1,0-0.3,0.1-0.3,0.3
		C45.6,32.2,45.7,32.4,45.8,32.4L45.8,32.4z"/>
	<path class="st1" d="M47.5,34.5c-0.2,0-0.3,0.1-0.3,0.2c0,0.1,0.2,0.2,0.3,0.3c0.1,0,0.3-0.1,0.3-0.3
		C47.8,34.6,47.7,34.5,47.5,34.5L47.5,34.5z"/>
	<path class="st1" d="M36.4,29.9c0,0.1,0.1,0.2,0.2,0.4c0.1-0.2,0.2-0.2,0.3-0.4c0-0.1,0-0.2,0-0.3c-0.1-0.1-0.2-0.1-0.3-0.1
		C36.5,29.7,36.4,29.8,36.4,29.9L36.4,29.9z"/>
	<path class="st1" d="M42,26.8c-0.1,0-0.2,0.2-0.2,0.3c0,0.1,0.2,0.3,0.3,0.2c0.1,0,0.2-0.1,0.2-0.2C42.3,27,42.2,26.8,42,26.8
		L42,26.8z"/>
	<path class="st1" d="M37.9,33.6c-0.1,0-0.2,0.1-0.2,0.3c0,0.1,0.1,0.2,0.2,0.2c0.1,0.1,0.2,0,0.3-0.2c0-0.1,0-0.2,0.1-0.4
		C38.1,33.6,38,33.6,37.9,33.6L37.9,33.6z"/>
	<path class="st1" d="M48.6,34.5c-0.2,0-0.3,0.1-0.3,0.2c0,0.1,0.1,0.2,0.3,0.2c0.2,0,0.3-0.1,0.3-0.2C49,34.6,48.8,34.5,48.6,34.5
		L48.6,34.5z"/>
	<path class="st1" d="M44.2,32.2c0.2,0,0.2-0.1,0.2-0.2c0-0.2-0.1-0.3-0.2-0.3c-0.1,0-0.2,0.1-0.3,0.2C44,32,44.1,32.1,44.2,32.2
		L44.2,32.2z"/>
	<path class="st1" d="M43.1,33.3c-0.1,0-0.2,0.1-0.3,0.2c0,0.2,0.1,0.3,0.2,0.3c0.2,0,0.2-0.1,0.2-0.2
		C43.3,33.5,43.2,33.3,43.1,33.3L43.1,33.3z"/>
	<path class="st1" d="M36,30.9c-0.1,0-0.2,0.1-0.2,0.2c0,0.1,0,0.3,0,0.4c0,0,0.2,0.1,0.2,0c0.1-0.1,0.1-0.2,0.2-0.3
		C36.1,31,36,30.9,36,30.9L36,30.9z"/>
	<path class="st1" d="M40.6,34.6c-0.2,0.1-0.1,0.3,0.1,0.5c0.3-0.2,0.3-0.4,0.2-0.5C40.8,34.5,40.7,34.5,40.6,34.6L40.6,34.6z"/>
	<path class="st1" d="M43.3,27.8C43.3,27.8,43.3,27.8,43.3,27.8C43.3,27.7,43.3,27.7,43.3,27.8L43.3,27.8L43.3,27.8L43.3,27.8
		L43.3,27.8z"/>
	<polygon class="st1" points="43.3,27.7 43.3,27.7 43.3,27.8 43.3,27.7 	"/>
	<path class="st1" d="M40.6,27.7c0.1,0,0.1-0.1,0.2-0.1c0-0.3-0.1-0.4-0.3-0.4c-0.1,0-0.2,0.1-0.3,0.2
		C40.3,27.5,40.5,27.7,40.6,27.7L40.6,27.7z"/>
	<path class="st1" d="M40.5,25.5c0.1,0,0.3-0.1,0.3-0.3c0-0.1-0.1-0.3-0.2-0.3c-0.1,0-0.3,0.1-0.3,0.3
		C40.3,25.3,40.4,25.5,40.5,25.5L40.5,25.5z"/>
	<path class="st1" d="M43.4,28.6c-0.2,0-0.3,0.1-0.3,0.2c0,0.1,0.2,0.3,0.4,0.3c0-0.1,0.1-0.2,0.1-0.3
		C43.7,28.8,43.6,28.6,43.4,28.6L43.4,28.6z"/>
	<path class="st1" d="M50.7,24.6c-0.1,0-0.2,0.1-0.3,0.2c0,0.1,0.1,0.3,0.3,0.3c0-0.1,0.1-0.1,0.2-0.2C51,24.7,50.9,24.6,50.7,24.6
		L50.7,24.6z"/>
	<path class="st1" d="M39,24.7c0-0.2-0.1-0.3-0.3-0.3c-0.1,0-0.2,0.1-0.2,0.3c0,0.2,0.1,0.2,0.2,0.2C38.9,25.1,39,24.9,39,24.7
		L39,24.7z"/>
	<ellipse transform="matrix(0.8529 -0.5221 0.5221 0.8529 -9.7896 23.5073)" class="st1" cx="36.8" cy="29.1" rx="0" ry="0"/>
	<path class="st1" d="M36.8,28.7c-0.1,0-0.2,0.2-0.2,0.3c0,0.2,0.2,0.2,0.3,0.3c0-0.1,0.1-0.2,0.1-0.4C37.1,28.8,37,28.7,36.8,28.7
		L36.8,28.7z"/>
	<path class="st1" d="M38.4,20.7c-0.1,0-0.2,0.2-0.2,0.3c0,0.2,0.2,0.2,0.3,0.3c0-0.1,0.1-0.2,0.1-0.4
		C38.6,20.7,38.5,20.6,38.4,20.7L38.4,20.7z"/>
	<path class="st1" d="M44.8,30.5c0,0-0.1-0.1-0.2-0.2c-0.1,0-0.3,0.1-0.3,0.3c0,0.1,0.1,0.3,0.2,0.3C44.7,30.9,44.8,30.7,44.8,30.5
		L44.8,30.5z"/>
	<path class="st1" d="M46.5,34.5c-0.2,0-0.3,0.1-0.3,0.2c0,0.1,0.1,0.2,0.2,0.2c0.2,0,0.4-0.1,0.4-0.3
		C46.8,34.6,46.7,34.5,46.5,34.5L46.5,34.5z"/>
	<path class="st1" d="M46.2,30c-0.1,0.1-0.1,0.2-0.1,0.3c0,0.1,0.1,0.2,0.2,0.4c0.1-0.2,0.2-0.3,0.2-0.4c0-0.1,0-0.2-0.1-0.3
		C46.4,29.9,46.2,29.9,46.2,30L46.2,30z"/>
	<path class="st1" d="M36,33.5c0-0.2-0.1-0.3-0.2-0.3c-0.2,0-0.2,0.1-0.2,0.2c0,0.2,0.1,0.3,0.2,0.3C35.9,33.8,36,33.6,36,33.5
		L36,33.5z"/>
	<path class="st1" d="M45.4,33c-0.1,0-0.2,0.1-0.2,0.3c0,0.1,0.2,0.3,0.3,0.2c0.1,0,0.2-0.1,0.2-0.1C45.7,33.1,45.5,33,45.4,33
		L45.4,33z"/>
	<path class="st1" d="M41.3,28.1c-0.1,0-0.2,0.1-0.2,0.3c0,0.2,0.1,0.3,0.3,0.3c0.2,0,0.2-0.1,0.2-0.3
		C41.5,28.2,41.4,28.1,41.3,28.1L41.3,28.1z"/>
	<path class="st1" d="M46,30.9c0-0.2-0.1-0.3-0.3-0.3c-0.2,0-0.2,0.1-0.2,0.3c0,0.1,0.1,0.2,0.2,0.2C45.9,31.1,46,31.1,46,30.9
		L46,30.9z"/>
	<path class="st1" d="M37.5,35c0.1,0,0.2-0.1,0.3-0.2c-0.1-0.1-0.2-0.3-0.3-0.3c-0.1-0.1-0.3,0.2-0.3,0.3
		C37.3,34.9,37.4,35.1,37.5,35L37.5,35z"/>
	<path class="st1" d="M47.7,25.7c0,0.1,0,0.2,0.2,0.2c0.2,0,0.3-0.1,0.3-0.3c0-0.1,0-0.2-0.2-0.3C47.9,25.4,47.7,25.5,47.7,25.7
		L47.7,25.7z"/>
	<path class="st1" d="M41.7,26.3c0-0.2-0.1-0.3-0.3-0.3c-0.1,0-0.2,0.1-0.2,0.2c0,0.2,0.1,0.2,0.3,0.3
		C41.6,26.6,41.7,26.5,41.7,26.3L41.7,26.3z"/>
	<path class="st1" d="M35.4,31.5c0-0.2-0.1-0.3-0.2-0.3c-0.1,0-0.2,0.1-0.2,0.3c0,0.1,0,0.3,0.2,0.3C35.3,31.8,35.4,31.7,35.4,31.5
		L35.4,31.5z"/>
	<path class="st1" d="M46,33.8c-0.1,0-0.3,0.1-0.3,0.2c0,0.1,0.1,0.2,0.2,0.2c0.1,0,0.3-0.1,0.3-0.2C46.2,33.9,46.1,33.8,46,33.8
		L46,33.8z"/>
	<path class="st1" d="M36.5,33.9c0,0.1-0.1,0.1-0.1,0.2c0,0.2,0.1,0.3,0.3,0.3c0.1,0,0.2-0.1,0.2-0.3C36.8,34,36.7,33.9,36.5,33.9
		L36.5,33.9z"/>
	<path class="st1" d="M48,27.2c-0.1,0-0.1-0.1-0.2-0.2c-0.1,0-0.2,0.1-0.2,0.3c0,0.1,0,0.2,0.2,0.3C47.9,27.6,48,27.5,48,27.2
		L48,27.2z"/>
	<path class="st1" d="M36.7,28.3c0.1,0.1,0.2,0.1,0.3-0.1c0-0.1,0-0.1,0.1-0.3c0-0.1-0.1-0.2-0.1-0.2c-0.1,0-0.2,0.1-0.3,0.2
		C36.6,28,36.5,28.2,36.7,28.3L36.7,28.3z"/>
	<path class="st1" d="M44.1,20.7c0,0.1-0.1,0.2-0.1,0.3c0,0.1,0.1,0.3,0.3,0.3c0.1,0,0.2-0.1,0.2-0.2C44.4,20.8,44.3,20.7,44.1,20.7
		L44.1,20.7z"/>
	<path class="st1" d="M43.3,18.7c0,0.1-0.1,0.2-0.1,0.3c0,0.1,0.1,0.3,0.3,0.3c0.1,0,0.2-0.1,0.2-0.2C43.6,18.8,43.5,18.6,43.3,18.7
		L43.3,18.7z"/>
	<path class="st1" d="M39.4,23.4c0,0.1,0.2,0.3,0.3,0.3c0.1,0,0.2-0.1,0.2-0.2c0-0.2-0.1-0.3-0.3-0.3C39.5,23.1,39.4,23.2,39.4,23.4
		L39.4,23.4z"/>
	<path class="st1" d="M35.7,29.3c0.1,0,0.2,0,0.2-0.1c0.2-0.2,0.1-0.3-0.2-0.5c-0.1,0.2-0.1,0.3-0.1,0.4
		C35.6,29.2,35.7,29.3,35.7,29.3L35.7,29.3z"/>
	<path class="st1" d="M38.2,23.5c-0.1,0-0.2,0.1-0.2,0.3c0,0.1,0.1,0.2,0.2,0.2c0.1,0,0.2-0.1,0.2-0.2
		C38.4,23.6,38.3,23.5,38.2,23.5L38.2,23.5z"/>
	<path class="st1" d="M42.5,34.3c0.1,0,0.2-0.1,0.2-0.2c0-0.2-0.2-0.4-0.3-0.3c-0.1,0-0.2,0.2-0.2,0.3
		C42.3,34.2,42.4,34.4,42.5,34.3L42.5,34.3z"/>
	<path class="st1" d="M40.1,24.1c-0.1,0-0.3,0.1-0.2,0.3c0,0.1,0.1,0.2,0.2,0.2c0.2,0,0.3-0.1,0.3-0.3
		C40.3,24.2,40.2,24.1,40.1,24.1L40.1,24.1z"/>
	<path class="st1" d="M39.1,34c-0.1,0-0.2,0.1-0.2,0.2c0,0.2,0.1,0.3,0.3,0.3c0-0.1,0.1-0.1,0.1-0.2C39.3,34.2,39.2,34,39.1,34
		L39.1,34z"/>
	<path class="st1" d="M36.6,31.3c0.1,0,0.2,0,0.2,0c0.1-0.1,0.2-0.2,0.1-0.3c0-0.1-0.1-0.1-0.2-0.2c-0.1,0.1-0.2,0.2-0.2,0.2
		C36.4,31.1,36.5,31.2,36.6,31.3L36.6,31.3z"/>
	<polygon class="st1" points="38.7,27 38.7,27 38.7,27 38.7,27 38.7,27 38.7,27 	"/>
	<path class="st1" d="M44,30c0.1,0,0.2-0.1,0.2-0.2c0-0.1-0.1-0.3-0.3-0.3c-0.1,0-0.2,0.1-0.2,0.2C43.8,29.8,43.8,29.9,44,30L44,30z
		"/>
	<path class="st1" d="M48.1,26.9c0-0.1,0.1-0.2,0.1-0.3c0-0.1-0.1-0.3-0.2-0.2c-0.1,0-0.2,0.1-0.2,0.2C47.8,26.8,48,26.9,48.1,26.9
		L48.1,26.9z"/>
	<path class="st1" d="M46.7,25.2c0-0.1,0.1-0.2,0.1-0.3c0-0.1-0.1-0.3-0.2-0.2c-0.1,0-0.2,0.1-0.2,0.2C46.4,25,46.5,25.2,46.7,25.2
		L46.7,25.2z"/>
	<path class="st1" d="M49.8,25.1c0-0.1,0.1-0.1,0.2-0.2c0-0.1-0.1-0.2-0.3-0.2c-0.1,0-0.2,0.1-0.2,0.2C49.4,25,49.6,25.2,49.8,25.1
		L49.8,25.1z"/>
	<path class="st1" d="M48.1,33.9c-0.1,0-0.2,0-0.2,0.2c0,0.1,0.1,0.3,0.2,0.3c0.1,0,0.3-0.1,0.3-0.2C48.4,34,48.3,33.9,48.1,33.9
		L48.1,33.9z"/>
	<path class="st1" d="M35.5,32.8c0-0.1,0-0.2,0-0.2c0,0,0-0.1,0-0.1c-0.1-0.1-0.2-0.1-0.2-0.1c-0.1,0-0.2,0.1-0.2,0.2
		C35.1,32.7,35.2,32.8,35.5,32.8L35.5,32.8z"/>
	<path class="st1" d="M44.9,32.9c0-0.1,0.1-0.1,0.1-0.2c0-0.1-0.1-0.3-0.2-0.3c-0.1,0-0.2,0.1-0.2,0.2
		C44.6,32.7,44.7,32.9,44.9,32.9L44.9,32.9z"/>
	<path class="st1" d="M37.8,22.6c-0.1,0-0.2,0.1-0.2,0.3c0,0.1,0.1,0.3,0.2,0.3c0.1,0,0.2-0.1,0.2-0.2C38,22.7,37.9,22.6,37.8,22.6
		L37.8,22.6z"/>
	<path class="st1" d="M38.5,34.7c-0.1,0-0.2,0.1-0.2,0.2c0,0.2,0.1,0.3,0.3,0.3c0.1,0,0.1-0.1,0.2-0.1
		C38.7,34.9,38.6,34.7,38.5,34.7L38.5,34.7z"/>
	<path class="st1" d="M50.3,34.5c-0.1,0-0.3,0.2-0.2,0.3c0.1,0.1,0.2,0.1,0.3,0.2c0.2,0,0.3-0.1,0.3-0.2
		C50.6,34.6,50.4,34.5,50.3,34.5L50.3,34.5z"/>
	<path class="st1" d="M47.5,27.8c-0.2,0-0.2,0.1-0.2,0.3c0,0.1,0.1,0.2,0.2,0.2c0.1,0,0.2-0.1,0.3-0.1
		C47.8,27.9,47.6,27.8,47.5,27.8L47.5,27.8z"/>
	<path class="st1" d="M51.7,24.5c-0.2,0-0.2,0.1-0.2,0.3c0,0.1,0.1,0.2,0.2,0.2c0.1,0,0.2-0.1,0.3-0.1C52,24.7,51.8,24.5,51.7,24.5
		L51.7,24.5z"/>
	<path class="st1" d="M42.7,29.9c0-0.1-0.1-0.3-0.2-0.3c-0.2,0-0.2,0.1-0.2,0.3c0,0.2,0.1,0.2,0.3,0.2C42.7,30.1,42.7,30,42.7,29.9
		L42.7,29.9z"/>
	<path class="st1" d="M47.3,33.2c-0.1,0-0.2,0.1-0.2,0.2c0,0.1,0.1,0.3,0.3,0.3c0.1,0,0.2-0.1,0.2-0.1
		C47.6,33.4,47.4,33.2,47.3,33.2L47.3,33.2z"/>
	<path class="st1" d="M39.3,22.8c0-0.1,0.1-0.1,0.1-0.2c0-0.1-0.1-0.3-0.3-0.3c-0.1,0-0.2,0.1-0.2,0.2C39,22.7,39.1,22.8,39.3,22.8
		L39.3,22.8z"/>
	<path class="st1" d="M41.8,29.4c0.2,0,0.3-0.1,0.3-0.3c0-0.1,0-0.2-0.2-0.2c-0.1,0-0.3,0.1-0.3,0.3C41.7,29.2,41.8,29.3,41.8,29.4
		L41.8,29.4z"/>
	<path class="st1" d="M38.9,26c0,0.1,0.1,0.2,0.2,0.3c0.1-0.2,0.2-0.2,0.2-0.3c0-0.1-0.1-0.2-0.2-0.2C38.9,25.8,38.9,25.9,38.9,26
		L38.9,26z"/>
	<path class="st1" d="M46.5,33.1c0.1,0,0.2-0.1,0.2-0.2c0-0.1-0.1-0.3-0.3-0.2c-0.1,0-0.2,0.1-0.2,0.2C46.3,33,46.4,33,46.5,33.1
		L46.5,33.1z"/>
	<path class="st1" d="M41.5,18.3c0.1,0,0.3-0.1,0.3-0.3c-0.1,0-0.1-0.1-0.2-0.1c-0.1,0-0.3,0.2-0.3,0.3
		C41.4,18.2,41.5,18.3,41.5,18.3L41.5,18.3z"/>
	<path class="st1" d="M37.5,22.2c0.1-0.1,0.2-0.2,0.2-0.3c0-0.1-0.1-0.3-0.2-0.3c-0.1,0-0.2,0.1-0.2,0.3C37.3,22,37.4,22,37.5,22.2
		L37.5,22.2z"/>
	<path class="st1" d="M39.9,25.7c0-0.1-0.1-0.3-0.3-0.2c0,0.1-0.1,0.1-0.1,0.2c0,0.1,0.1,0.3,0.2,0.3C39.9,26,39.9,25.8,39.9,25.7
		L39.9,25.7z"/>
	<path class="st1" d="M36.9,32.3c0.1,0,0.1-0.1,0.3-0.3c-0.1-0.1-0.2-0.2-0.3-0.2c-0.1,0-0.2,0.1-0.2,0.2
		C36.7,32.2,36.8,32.3,36.9,32.3L36.9,32.3z"/>
	<path class="st1" d="M41.2,24.6c-0.1,0.2,0,0.3,0.1,0.4c0.1,0,0.2,0.1,0.2,0c0.1,0,0.1-0.2,0.1-0.2C41.5,24.6,41.4,24.5,41.2,24.6
		L41.2,24.6z"/>
	<path class="st1" d="M46.6,29.5c0,0.1,0.1,0.2,0.2,0.3c0.1-0.2,0.2-0.2,0.2-0.3c0-0.1-0.1-0.2-0.2-0.3
		C46.7,29.2,46.6,29.4,46.6,29.5L46.6,29.5z"/>
	<path class="st1" d="M43.3,22.9c0,0.1,0.1,0.2,0.2,0.2c0.1,0,0.2-0.1,0.2-0.3c0,0-0.1-0.1-0.2-0.2C43.4,22.7,43.3,22.8,43.3,22.9
		L43.3,22.9z"/>
	<path class="st1" d="M37.6,21.1c0.1,0,0.2-0.1,0.2-0.3c0,0-0.1-0.1-0.2-0.2c-0.1,0-0.2,0.1-0.2,0.2C37.4,21,37.5,21.1,37.6,21.1
		L37.6,21.1z"/>
	<path class="st1" d="M43.7,22.1c0,0.1,0.1,0.2,0.2,0.2c0.1,0,0.2-0.1,0.3-0.2c-0.1-0.1-0.2-0.2-0.3-0.2
		C43.8,21.8,43.7,22,43.7,22.1L43.7,22.1z"/>
	<path class="st1" d="M48.6,25.2c0.1,0,0.3-0.1,0.2-0.3c0-0.1-0.1-0.2-0.2-0.3c-0.1,0.2-0.2,0.2-0.2,0.3
		C48.4,25.1,48.5,25.2,48.6,25.2L48.6,25.2z"/>
	<path class="st1" d="M47.6,25.1c0.1,0,0.2-0.1,0.2-0.3c0-0.1-0.1-0.2-0.2-0.2c-0.2,0-0.3,0.1-0.3,0.3C47.4,25,47.4,25.1,47.6,25.1
		L47.6,25.1z"/>
	<path class="st1" d="M38.1,20c0.1,0,0.2-0.1,0.2-0.2c0-0.1-0.1-0.2-0.2-0.3c-0.1,0.1-0.2,0.2-0.2,0.3C37.8,19.9,37.9,20,38.1,20
		L38.1,20z"/>
	<path class="st1" d="M43.6,31.5c0.1,0,0.2-0.1,0.3-0.3c-0.1-0.1-0.2-0.2-0.3-0.2c-0.1,0-0.2,0.1-0.2,0.3
		C43.4,31.4,43.5,31.6,43.6,31.5L43.6,31.5z"/>
	<path class="st1" d="M36.5,33.5c0.1,0,0.2-0.1,0.3-0.3c-0.1-0.1-0.2-0.2-0.3-0.2c-0.1,0-0.2,0.1-0.2,0.3
		C36.3,33.5,36.4,33.6,36.5,33.5L36.5,33.5z"/>
	<path class="st1" d="M43.3,30.5c0-0.1-0.1-0.2-0.1-0.3c-0.2,0-0.3,0.1-0.3,0.2c0,0.1,0,0.2,0.2,0.3C43.2,30.8,43.4,30.7,43.3,30.5
		L43.3,30.5z"/>
	<path class="st1" d="M44.2,19.8c0-0.2-0.1-0.3-0.3-0.3c-0.1,0-0.2,0.1-0.2,0.2c0,0.1,0.2,0.3,0.3,0.3C44.1,20,44.2,19.9,44.2,19.8
		L44.2,19.8z"/>
	<ellipse transform="matrix(0.188 -0.9822 0.9822 0.188 11.7991 61.9769)" class="st1" cx="43.4" cy="23.9" rx="0" ry="0"/>
	<path class="st1" d="M51.3,34.6c-0.1,0-0.2,0-0.2,0.1c0,0.1,0,0.2,0.1,0.2c0,0.1,0.1,0.1,0.3,0.2c0-0.2,0.1-0.2,0.1-0.3
		C51.5,34.7,51.4,34.6,51.3,34.6L51.3,34.6z"/>
	<path class="st1" d="M39.6,18.8c0.1-0.1,0.2-0.2,0.3-0.4c-0.1-0.1-0.2-0.1-0.2-0.1c-0.1,0-0.3,0.2-0.2,0.3
		C39.5,18.7,39.6,18.8,39.6,18.8L39.6,18.8z"/>
	<polygon class="st1" points="38.7,27 38.7,27 38.7,27 38.7,27 	"/>
	<polygon class="st1" points="38.7,27 38.7,27 38.7,27 38.7,27 	"/>
	<path class="st1" d="M37.6,27.5c0.2,0,0.2-0.1,0.2-0.3c0,0-0.1-0.1-0.2-0.1c-0.1,0-0.3,0.1-0.3,0.3C37.4,27.5,37.4,27.6,37.6,27.5
		L37.6,27.5z"/>
	<path class="st1" d="M43.6,20.6c0.2,0,0.2-0.1,0.2-0.3c0,0-0.1-0.1-0.2-0.1c-0.1,0-0.3,0.1-0.3,0.3C43.4,20.5,43.4,20.6,43.6,20.6
		L43.6,20.6z"/>
	<path class="st1" d="M47.4,28.7c0-0.1-0.1-0.2-0.2-0.3c-0.1,0.1-0.2,0.2-0.2,0.3c0,0.1,0,0.2,0,0.3c0,0,0.2,0,0.2,0
		C47.3,28.9,47.4,28.8,47.4,28.7L47.4,28.7z"/>
	<path class="st1" d="M49,25.9c0-0.1-0.1-0.2-0.2-0.3c-0.1,0.1-0.2,0.2-0.2,0.3c0,0.1,0,0.2,0,0.3c0,0,0.2,0,0.2,0
		C49,26,49,25.9,49,25.9L49,25.9z"/>
	<path class="st1" d="M38.3,26.8c0.1,0,0.2-0.1,0.3-0.2c-0.1-0.1-0.2-0.2-0.3-0.2c-0.1,0-0.3,0.1-0.2,0.3
		C38.1,26.7,38.2,26.8,38.3,26.8L38.3,26.8z"/>
	<path class="st1" d="M43,23.9c0.1,0,0.1-0.1,0.3-0.2c-0.1-0.1-0.2-0.2-0.3-0.2c-0.1,0-0.2,0.1-0.2,0.2C42.7,23.8,42.8,24,43,23.9
		L43,23.9z"/>
	<path class="st1" d="M40.6,18.4c0.1,0,0.2-0.1,0.3-0.2c-0.2-0.1-0.3-0.2-0.3-0.2c-0.1,0-0.2,0.1-0.2,0.2
		C40.4,18.2,40.6,18.4,40.6,18.4L40.6,18.4z"/>
	<path class="st1" d="M44.1,32.9c0,0-0.1-0.2-0.1-0.2c-0.1,0-0.2,0-0.2,0.1c-0.1,0.1-0.1,0.2-0.1,0.3c0.2,0,0.3,0,0.3,0
		C44,33,44,32.9,44.1,32.9L44.1,32.9z"/>
	<path class="st1" d="M35.9,30.4c0.1,0,0.2-0.1,0.2-0.2c0-0.1-0.1-0.2-0.2-0.4c-0.1,0.1-0.2,0.2-0.2,0.3
		C35.7,30.3,35.8,30.5,35.9,30.4L35.9,30.4z"/>
	<path class="st1" d="M46.8,34.2c0.1,0,0.2-0.1,0.2-0.2c0-0.1-0.1-0.2-0.2-0.4c-0.1,0.1-0.2,0.2-0.2,0.3
		C46.5,34.1,46.7,34.2,46.8,34.2L46.8,34.2z"/>
	<path class="st1" d="M36,32.5c0.1,0,0.2-0.1,0.2-0.2c0-0.1-0.1-0.2-0.2-0.4c-0.1,0.1-0.2,0.2-0.2,0.3C35.8,32.4,35.9,32.5,36,32.5
		L36,32.5z"/>
	<path class="st1" d="M42.6,29.2c0.1,0,0.2-0.1,0.2-0.2c0-0.1-0.1-0.2-0.2-0.4c-0.1,0.1-0.2,0.2-0.2,0.3
		C42.3,29.1,42.5,29.2,42.6,29.2L42.6,29.2z"/>
	<path class="st1" d="M38.4,22.6c0.1,0,0.2-0.1,0.2-0.2c0-0.1-0.1-0.2-0.2-0.4c-0.1,0.1-0.2,0.2-0.2,0.3
		C38.2,22.4,38.3,22.6,38.4,22.6L38.4,22.6z"/>
	<path class="st1" d="M39,21.8c0.1,0,0.2-0.1,0.2-0.2c0-0.1-0.1-0.2-0.2-0.4c-0.1,0.1-0.2,0.2-0.2,0.3C38.7,21.7,38.9,21.8,39,21.8
		L39,21.8z"/>
	<path class="st1" d="M35.2,30.5c0.1,0,0.1,0,0.2-0.1c0.1-0.1,0-0.3-0.2-0.4c0,0.1-0.1,0.3-0.1,0.4C35,30.4,35.1,30.5,35.2,30.5
		L35.2,30.5z"/>
	<path class="st1" d="M39.1,20.4c0.1,0,0.1,0,0.2-0.1c0.1-0.1,0-0.3-0.2-0.4c0,0.1-0.1,0.3-0.1,0.4C39,20.3,39,20.4,39.1,20.4
		L39.1,20.4z"/>
	<path class="st1" d="M41.7,34.3c-0.1,0-0.2,0.1-0.2,0.2c0,0.1,0.1,0.2,0.2,0.2c0.1,0,0.2-0.1,0.3-0.2
		C41.8,34.4,41.8,34.3,41.7,34.3L41.7,34.3z"/>
	<path class="st1" d="M42.2,24.5c0,0,0.1-0.1,0.1-0.2c0-0.2-0.1-0.2-0.2-0.2c-0.1,0-0.1,0.1-0.2,0.2C41.8,24.4,42,24.5,42.2,24.5
		L42.2,24.5z"/>
	<path class="st1" d="M40.1,26.8c0.1,0,0.1-0.1,0.1-0.1c0-0.2,0-0.3-0.2-0.3c-0.1,0-0.2,0.1-0.2,0.2C39.8,26.6,40,26.8,40.1,26.8
		L40.1,26.8z"/>
	<path class="st1" d="M39.2,24.2c0.1,0,0.1-0.1,0.1-0.1c0-0.2,0-0.3-0.2-0.3c-0.1,0-0.2,0.1-0.2,0.2C38.9,24.1,39.1,24.2,39.2,24.2
		L39.2,24.2z"/>
	<g>
		<path class="st0" d="M58.9,40.9c-1.4,1.5-2.8,2.2-4.6,2.2c-2.3,0-3.6-1.1-3.6-2.6c0-0.8,0.8-1.9,2-1.9c1,0,2,0.5,2,1.7
			c0,0.7-0.3,1.3-0.3,1.5c0.1,0,0.6,0.1,0.7,0.1c2.1,0,2.8-1.9,2.8-7.4v-12c-0.1-0.7-0.4-1.5-1-1.9c-0.4-0.3-2.3-0.6-2.9-0.6v-1
			l6.8-0.4l0.2,0.2v14.8C61.1,36.6,60.6,39.1,58.9,40.9L58.9,40.9z M59.1,14.3c-1.2,0-2.1-1-2.1-2.1c0-1.2,1-2.2,2.1-2.2
			c1.3,0,2.2,1,2.2,2.1C61.3,13.2,60.4,14.3,59.1,14.3L59.1,14.3z"/>
		<path class="st1" d="M60.2,13.1c0,0.1,0.1,0.3,0.3,0.3c0.2,0,0.3-0.1,0.4-0.3c0-0.1-0.1-0.2-0.4-0.2
			C60.3,12.9,60.2,12.9,60.2,13.1L60.2,13.1z"/>
		<path class="st1" d="M60.7,24.4c-0.1,0-0.3,0.3-0.3,0.4c0,0.2,0.1,0.2,0.3,0.2c0.2,0,0.3-0.1,0.3-0.3
			C60.9,24.5,60.8,24.4,60.7,24.4L60.7,24.4z"/>
		<path class="st1" d="M59.2,11.6c0.1,0.1,0.2,0,0.3-0.1c0-0.1,0.1-0.2,0.1-0.3c0-0.1-0.1-0.2-0.1-0.2c0,0-0.2,0-0.2,0.1
			c-0.1,0-0.1,0.1-0.2,0.2C59,11.4,59,11.6,59.2,11.6L59.2,11.6z"/>
		<path class="st1" d="M60.9,34.3c0-0.3-0.1-0.5-0.3-0.4c-0.1,0-0.3,0.2-0.3,0.3c0,0.1,0.1,0.2,0.3,0.2
			C60.8,34.4,60.9,34.3,60.9,34.3L60.9,34.3z"/>
		<path class="st1" d="M58,13c-0.2,0-0.2,0.1-0.2,0.2c0,0.2,0.1,0.3,0.3,0.3c0.2,0,0.2-0.1,0.2-0.2C58.3,13.1,58.2,13,58,13L58,13z"
			/>
		<path class="st1" d="M60.6,33.4c0.1,0,0.2-0.1,0.2-0.3c0-0.2-0.1-0.3-0.3-0.3c-0.1,0-0.2,0.1-0.2,0.3
			C60.3,33.2,60.5,33.4,60.6,33.4L60.6,33.4z"/>
		<path class="st1" d="M59.9,29.6c0-0.2-0.1-0.4-0.3-0.4c-0.1,0-0.2,0.1-0.2,0.3c0,0.2,0.1,0.3,0.3,0.3
			C59.8,29.9,59.9,29.8,59.9,29.6L59.9,29.6z"/>
		<path class="st1" d="M59.9,20.7c-0.1-0.1-0.2-0.2-0.3-0.3c-0.2,0.1-0.2,0.3-0.2,0.4c0,0.1,0.1,0.2,0.2,0.2
			C59.8,21.1,59.9,20.9,59.9,20.7L59.9,20.7z"/>
		<path class="st1" d="M60.5,27.6c0.2,0,0.3-0.1,0.3-0.3c0-0.2-0.1-0.3-0.2-0.3c-0.1,0-0.3,0.2-0.3,0.4
			C60.3,27.6,60.4,27.6,60.5,27.6L60.5,27.6z"/>
		<path class="st1" d="M60.6,32.1c0.1,0,0.3-0.2,0.2-0.4c0-0.1-0.1-0.2-0.2-0.3c-0.2,0-0.4,0.2-0.3,0.4C60.4,32,60.4,32.1,60.6,32.1
			L60.6,32.1z"/>
		<path class="st1" d="M58.4,10.9c0.3-0.3,0.3-0.3,0.1-0.7C58.2,10.4,58.1,10.6,58.4,10.9L58.4,10.9z"/>
		<path class="st1" d="M59.4,32.8c-0.2,0-0.2,0.1-0.2,0.2c0,0.2,0.1,0.4,0.3,0.4c0.1,0,0.2-0.2,0.2-0.3
			C59.7,32.9,59.6,32.8,59.4,32.8L59.4,32.8z"/>
		<path class="st1" d="M59.1,26.3c-0.2,0-0.3,0.1-0.3,0.3c0,0.1,0.1,0.3,0.2,0.3c0.1,0,0.3-0.2,0.3-0.3
			C59.3,26.4,59.2,26.3,59.1,26.3L59.1,26.3z"/>
		<path class="st1" d="M60.5,29.4c-0.1,0-0.2,0.1-0.2,0.3c0,0.2,0.1,0.2,0.3,0.2c0.1,0,0.2,0,0.3-0.3C60.8,29.6,60.7,29.5,60.5,29.4
			L60.5,29.4z"/>
		<path class="st1" d="M59.1,30.6c-0.2,0-0.2,0.2-0.2,0.3c0,0.2,0.1,0.3,0.2,0.3c0.1,0,0.2-0.1,0.3-0.3
			C59.4,30.7,59.3,30.6,59.1,30.6L59.1,30.6z"/>
		<path class="st1" d="M58.9,27.7c0.1,0,0.2,0,0.3-0.1c0.1-0.1,0.1-0.2,0.1-0.4c-0.2,0-0.3-0.1-0.4,0c-0.1,0-0.2,0.2-0.2,0.2
			C58.8,27.6,58.8,27.7,58.9,27.7L58.9,27.7z"/>
		<path class="st1" d="M56,42.5c0.1,0.1,0.3,0.1,0.4,0c0.1-0.1,0.1-0.3-0.1-0.5C55.9,42.2,55.9,42.4,56,42.5L56,42.5z"/>
		<path class="st1" d="M60.6,12.2c0,0.1,0.2,0.3,0.3,0.3c0.1,0,0.2-0.1,0.2-0.3c0-0.2-0.1-0.3-0.4-0.3C60.7,12,60.6,12.1,60.6,12.2
			L60.6,12.2z"/>
		<path class="st1" d="M60.6,20.6c0.1,0,0.2-0.1,0.2-0.2c0-0.2-0.1-0.4-0.2-0.4c-0.1,0-0.2,0.1-0.2,0.3
			C60.3,20.4,60.4,20.6,60.6,20.6L60.6,20.6z"/>
		<path class="st1" d="M60.5,35.6c0.1,0,0.3-0.2,0.3-0.4c-0.1,0-0.1-0.1-0.2-0.1c-0.1,0-0.3,0.1-0.3,0.3
			C60.2,35.5,60.4,35.6,60.5,35.6L60.5,35.6z"/>
		<path class="st1" d="M58.4,37.9c0.1,0,0.3-0.2,0.3-0.4c-0.1,0-0.1-0.1-0.2-0.1c-0.1,0-0.3,0.1-0.3,0.3
			C58.2,37.8,58.3,37.9,58.4,37.9L58.4,37.9z"/>
		<path class="st1" d="M59.4,34c-0.2,0-0.2,0.1-0.2,0.2c0,0.2,0.1,0.4,0.2,0.4c0.2,0,0.2-0.1,0.2-0.3C59.6,34.1,59.5,34,59.4,34
			L59.4,34z"/>
		<path class="st1" d="M60,12.1c0.1,0,0.3-0.1,0.3-0.3c0-0.1-0.1-0.2-0.2-0.2c-0.1,0-0.3,0.2-0.3,0.3C59.8,12,59.8,12.1,60,12.1
			L60,12.1z"/>
		<path class="st1" d="M59.4,35.7c0.1,0,0.2-0.1,0.2-0.2c0-0.2-0.1-0.3-0.3-0.3c-0.1,0-0.3,0.1-0.2,0.3
			C59.1,35.6,59.3,35.7,59.4,35.7L59.4,35.7z"/>
		<path class="st1" d="M58.3,39.2c0.1,0,0.2-0.1,0.2-0.2c0-0.2-0.1-0.3-0.3-0.3c-0.1,0-0.3,0.1-0.2,0.3C58,39.1,58.2,39.3,58.3,39.2
			L58.3,39.2z"/>
		<path class="st1" d="M53.9,40.6c0,0.1,0.1,0.3,0.2,0.3c0.1,0,0.3-0.1,0.3-0.3c-0.1,0-0.1-0.1-0.2-0.2
			C54.1,40.3,53.9,40.5,53.9,40.6L53.9,40.6z"/>
		<path class="st1" d="M57.6,12.7c0-0.2,0-0.4,0-0.5c0-0.1-0.1-0.2-0.2-0.2c-0.1,0-0.2,0.1-0.2,0.1C57.1,12.3,57.2,12.5,57.6,12.7
			L57.6,12.7z"/>
		<path class="st1" d="M57.1,19.7c0.1,0,0.2-0.1,0.2-0.3c0-0.2-0.1-0.3-0.2-0.3c-0.1,0-0.2,0.1-0.3,0.3C56.9,19.6,57,19.7,57.1,19.7
			L57.1,19.7z"/>
		<path class="st1" d="M59.8,38.6c0-0.2-0.1-0.3-0.3-0.3c-0.1,0-0.2,0.1-0.2,0.3c0,0.1,0.2,0.3,0.3,0.3
			C59.7,38.7,59.8,38.6,59.8,38.6L59.8,38.6z"/>
		<path class="st1" d="M58.6,28.5c-0.1,0-0.3,0.1-0.3,0.3c0,0.1,0.1,0.3,0.2,0.3c0.1,0,0.3-0.2,0.3-0.4
			C58.8,28.6,58.7,28.5,58.6,28.5L58.6,28.5z"/>
		<path class="st1" d="M59.8,28c-0.1,0-0.3,0.1-0.3,0.3c0,0.1,0.1,0.3,0.2,0.3c0.1,0,0.3-0.2,0.3-0.4C60,28.1,59.9,28,59.8,28
			L59.8,28z"/>
		<path class="st1" d="M58.2,34.1c0.1,0,0.3-0.2,0.3-0.4c0,0-0.1-0.1-0.2-0.2c-0.1,0-0.3,0.1-0.3,0.3C58,34,58.1,34.1,58.2,34.1
			L58.2,34.1z"/>
		<path class="st1" d="M52.1,39.5c0.2,0,0.2-0.1,0.2-0.3c0-0.2-0.1-0.3-0.3-0.3c-0.1,0-0.2,0.1-0.2,0.3C51.9,39.4,52,39.5,52.1,39.5
			L52.1,39.5z"/>
		<path class="st1" d="M53,41.5c0.2,0,0.2-0.1,0.2-0.3c0-0.2-0.1-0.3-0.3-0.3c-0.1,0-0.2,0.1-0.2,0.3C52.8,41.4,52.9,41.6,53,41.5
			L53,41.5z"/>
		<path class="st1" d="M60.2,11.1c0.1,0,0.3-0.2,0.3-0.3c0-0.1-0.1-0.2-0.2-0.2c-0.2,0-0.3,0.1-0.3,0.3C60,11,60.1,11.1,60.2,11.1
			L60.2,11.1z"/>
		<path class="st1" d="M58.8,19.9c0,0.1-0.2,0.1-0.2,0.2c0,0.1,0.1,0.3,0.2,0.3c0.1,0,0.2-0.1,0.2-0.3C59.1,20.1,59,19.9,58.8,19.9
			L58.8,19.9z"/>
		<path class="st1" d="M60.5,19c0,0.1-0.2,0.1-0.2,0.2c0,0.1,0.1,0.3,0.2,0.3c0.1,0,0.2-0.1,0.2-0.3C60.8,19.2,60.7,19,60.5,19
			L60.5,19z"/>
		<path class="st1" d="M54.2,41.4c0-0.2-0.1-0.2-0.2-0.2c-0.1,0-0.3,0.1-0.2,0.3c0,0.1,0.1,0.2,0.2,0.2
			C54.1,41.7,54.2,41.6,54.2,41.4L54.2,41.4z"/>
		<path class="st1" d="M59,21.4c-0.2,0-0.2,0.1-0.2,0.2c0,0.2,0.1,0.3,0.3,0.3c0-0.1,0.1-0.2,0.2-0.3C59.2,21.6,59.1,21.4,59,21.4
			L59,21.4z"/>
		<path class="st1" d="M57.8,21.2c0.1-0.3,0.1-0.5-0.1-0.5c-0.1,0-0.2,0-0.2,0c-0.1,0.1-0.1,0.2-0.1,0.4
			C57.5,21.3,57.7,21.3,57.8,21.2L57.8,21.2z"/>
		<path class="st1" d="M60,24.2c0-0.2-0.1-0.3-0.2-0.3c-0.2,0-0.2,0.1-0.2,0.3c0,0.2,0.1,0.3,0.2,0.3C60,24.4,60,24.3,60,24.2
			L60,24.2z"/>
		<path class="st1" d="M59,39.2c0,0-0.1,0.1-0.1,0.2c0,0.1,0.2,0.4,0.3,0.3c0.1,0,0.2-0.1,0.2-0.2C59.4,39.4,59.2,39.3,59,39.2
			L59,39.2z"/>
		<path class="st1" d="M59.2,25.4c0.2,0,0.2-0.1,0.2-0.3c0-0.1,0-0.3-0.2-0.3c-0.1,0-0.2,0.1-0.2,0.2C59,25.2,59.1,25.4,59.2,25.4
			L59.2,25.4z"/>
		<path class="st1" d="M59.8,22.1c-0.1,0-0.2,0.1-0.2,0.3c0,0.1,0,0.2,0.2,0.3c0.1,0,0.2-0.1,0.2-0.3C59.9,22.2,59.9,22.1,59.8,22.1
			L59.8,22.1z"/>
		<path class="st1" d="M53.6,39.5c0,0.2,0.1,0.3,0.3,0.3c0.1,0,0.2-0.1,0.2-0.4c-0.1,0-0.1-0.1-0.2-0.2
			C53.7,39.2,53.6,39.4,53.6,39.5L53.6,39.5z"/>
		<path class="st1" d="M58.3,12.1c-0.2,0-0.2,0.1-0.2,0.3c0,0.1,0.2,0.3,0.3,0.3c0.1,0,0.1-0.1,0.2-0.2
			C58.5,12.3,58.4,12.1,58.3,12.1L58.3,12.1z"/>
		<path class="st1" d="M60.5,25.8c0,0.1,0.1,0.3,0.3,0.3c0.1,0,0.2-0.1,0.2-0.1c0-0.2-0.1-0.4-0.2-0.3
			C60.6,25.5,60.5,25.6,60.5,25.8L60.5,25.8z"/>
		<path class="st1" d="M59.9,13.4c-0.1,0-0.2,0.1-0.2,0.2c0,0.1,0.2,0.3,0.3,0.2c0.1,0,0.2-0.1,0.2-0.2C60.1,13.5,60,13.4,59.9,13.4
			L59.9,13.4z"/>
		<path class="st1" d="M58.9,14.1c0.1,0,0.3-0.1,0.2-0.2c0-0.1-0.1-0.2-0.2-0.4c-0.1,0.1-0.2,0.2-0.2,0.3
			C58.6,13.9,58.8,14.1,58.9,14.1L58.9,14.1z"/>
		<path class="st1" d="M60.6,22.1c-0.1,0-0.2,0.2-0.2,0.3c0,0.1,0.1,0.3,0.2,0.2c0.1,0,0.2-0.1,0.2-0.2
			C60.9,22.2,60.7,22.1,60.6,22.1L60.6,22.1z"/>
		<path class="st1" d="M60.7,23.2c-0.1,0-0.3,0.1-0.3,0.3c0,0.1,0.1,0.2,0.2,0.2c0.2,0,0.3-0.1,0.3-0.3
			C60.9,23.4,60.9,23.3,60.7,23.2L60.7,23.2z"/>
		<path class="st1" d="M59.3,32.2c0.1,0,0.2-0.1,0.2-0.1c0-0.2-0.1-0.4-0.3-0.4c-0.2,0-0.2,0.1-0.2,0.2C59,32.1,59.1,32.2,59.3,32.2
			L59.3,32.2z"/>
		<path class="st1" d="M58.2,11.5c0,0.1,0.1,0.2,0.2,0.2c0.1,0,0.3-0.1,0.3-0.4c0,0-0.1-0.1-0.2-0.1C58.3,11.1,58.2,11.3,58.2,11.5
			L58.2,11.5z"/>
		<path class="st1" d="M52.4,40.3c0-0.1-0.1-0.2-0.2-0.2c-0.1,0-0.2,0.1-0.3,0.2c0,0.1,0.1,0.3,0.2,0.3
			C52.3,40.6,52.4,40.5,52.4,40.3L52.4,40.3z"/>
		<path class="st1" d="M60.5,28.7c0.1,0,0.2-0.1,0.2-0.2c0-0.2-0.1-0.3-0.2-0.3c-0.2,0-0.2,0.1-0.2,0.2
			C60.3,28.6,60.4,28.7,60.5,28.7L60.5,28.7z"/>
		<path class="st1" d="M60.6,21.4c0.1-0.2,0.2-0.3,0.2-0.4c0-0.1-0.1-0.2-0.2-0.3c-0.1,0-0.3,0.2-0.2,0.3
			C60.4,21.2,60.5,21.3,60.6,21.4L60.6,21.4z"/>
		<path class="st1" d="M55.7,19.5c0,0.1,0.1,0.3,0.3,0.3c0.1,0,0.2-0.1,0.2-0.2c0-0.2-0.2-0.4-0.3-0.3
			C55.8,19.3,55.8,19.4,55.7,19.5L55.7,19.5z"/>
		<path class="st1" d="M59.8,37.7c0.1,0.1,0.3-0.1,0.3-0.3c0,0-0.1-0.1-0.2-0.2c-0.1,0-0.3,0.1-0.3,0.3
			C59.6,37.5,59.7,37.6,59.8,37.7L59.8,37.7z"/>
		<path class="st1" d="M54.7,42.6c0,0.1,0.1,0.2,0.2,0.2c0.1,0,0.3-0.1,0.3-0.3c-0.1,0-0.1-0.1-0.2-0.2
			C54.8,42.3,54.7,42.5,54.7,42.6L54.7,42.6z"/>
		<path class="st1" d="M53.4,40.2c0-0.1-0.1-0.2-0.2-0.2c-0.1,0-0.3,0.1-0.3,0.3c0,0.1,0.1,0.2,0.1,0.2
			C53.3,40.4,53.5,40.3,53.4,40.2L53.4,40.2z"/>
		<path class="st1" d="M58.5,40.1c-0.1,0-0.2,0.1-0.2,0.2c0,0.1,0.1,0.3,0.2,0.3c0.2,0,0.2-0.1,0.2-0.2
			C58.8,40.2,58.7,40.1,58.5,40.1L58.5,40.1z"/>
		<path class="st1" d="M52.1,41.1c-0.1,0-0.2,0.1-0.2,0.2c0,0.1,0.1,0.3,0.2,0.3c0.2,0,0.2-0.1,0.2-0.2
			C52.4,41.2,52.3,41.1,52.1,41.1L52.1,41.1z"/>
		<path class="st1" d="M59,19c-0.1,0-0.2,0.1-0.2,0.3c0.1,0,0.1,0.1,0.2,0.2c0.1,0,0.2-0.1,0.2-0.2C59.2,19.2,59.1,19,59,19L59,19z"
			/>
		<path class="st1" d="M60,19.2c0-0.1-0.1-0.2-0.2-0.3c-0.2,0-0.3,0.1-0.3,0.2c0,0.1,0.1,0.3,0.2,0.3C59.9,19.5,60,19.4,60,19.2
			L60,19.2z"/>
		<path class="st1" d="M58.2,22.4c0,0.1-0.1,0.1-0.1,0.2c0,0.2,0.1,0.3,0.2,0.3c0.1,0,0.2-0.1,0.2-0.3
			C58.5,22.5,58.4,22.4,58.2,22.4L58.2,22.4z"/>
		<path class="st1" d="M59.5,10.6c0.1,0,0.2-0.1,0.2-0.2c0-0.2-0.1-0.3-0.2-0.3c-0.1,0-0.2,0.1-0.2,0.2
			C59.3,10.5,59.4,10.7,59.5,10.6L59.5,10.6z"/>
		<path class="st1" d="M57.9,21.7c0,0.2,0.1,0.3,0.2,0.3c0.1,0,0.1-0.1,0.2-0.2c0-0.2,0-0.4-0.2-0.4C57.9,21.4,57.9,21.5,57.9,21.7
			L57.9,21.7z"/>
		<path class="st1" d="M54.5,19.8c0.1,0,0.1-0.1,0.2-0.1c0-0.2-0.1-0.3-0.3-0.3c-0.1,0-0.2,0.1-0.2,0.2
			C54.2,19.7,54.4,19.8,54.5,19.8L54.5,19.8z"/>
		<path class="st1" d="M59.9,26.6c0,0.1,0.1,0.2,0.1,0.2c0.2,0,0.3-0.1,0.3-0.3c0-0.1,0-0.2-0.2-0.2C60,26.3,59.9,26.5,59.9,26.6
			L59.9,26.6z"/>
		<path class="st1" d="M59.3,23c0,0.1-0.1,0.1-0.1,0.2c0,0.2,0.1,0.4,0.3,0.3c0.1,0,0.2-0.1,0.2-0.3C59.6,23.1,59.4,22.9,59.3,23
			L59.3,23z"/>
		<path class="st1" d="M52.9,39.1c0,0.1,0.1,0.2,0.1,0.3c0.2,0,0.3-0.1,0.3-0.3c0-0.1,0-0.2-0.2-0.2C53,38.9,52.9,39,52.9,39.1
			L52.9,39.1z"/>
		<path class="st1" d="M58.4,27c0-0.1,0.1-0.2,0.1-0.3c0-0.2-0.1-0.3-0.2-0.2c-0.1,0-0.2,0.2-0.1,0.3c0,0.1,0.1,0.2,0.2,0.3
			C58.4,27,58.4,27,58.4,27L58.4,27z"/>
		<path class="st1" d="M57.5,20.3c0-0.2-0.2-0.3-0.3-0.3c-0.1,0-0.2,0.1-0.2,0.2c0,0.1,0.1,0.3,0.3,0.3
			C57.4,20.5,57.4,20.4,57.5,20.3L57.5,20.3z"/>
		<path class="st1" d="M58.4,24.5c-0.1,0-0.3,0.1-0.3,0.2c0,0.1,0.1,0.2,0.2,0.4c0.1-0.2,0.2-0.3,0.2-0.4
			C58.6,24.6,58.5,24.5,58.4,24.5L58.4,24.5z"/>
		<path class="st1" d="M58.4,34.7c-0.1,0-0.3,0.1-0.3,0.2c0,0.1,0.1,0.2,0.2,0.4c0.1-0.2,0.2-0.3,0.2-0.4
			C58.6,34.8,58.5,34.7,58.4,34.7L58.4,34.7z"/>
		<path class="st1" d="M58.9,13.1c0,0.1,0.1,0.2,0.2,0.2c0.1,0,0.2-0.1,0.3-0.3c-0.1-0.1-0.1-0.2-0.2-0.2C59,12.9,58.9,13,58.9,13.1
			L58.9,13.1z"/>
		<path class="st1" d="M51.1,40.4c-0.1,0-0.2,0.1-0.2,0.2c0,0.1,0.1,0.3,0.2,0.3c0.1,0,0.2-0.1,0.3-0.2
			C51.2,40.5,51.2,40.4,51.1,40.4L51.1,40.4z"/>
		<path class="st1" d="M59.8,26c0.1,0,0.2-0.1,0.3-0.2c-0.1-0.1-0.2-0.2-0.3-0.2c-0.1,0-0.3,0.1-0.3,0.3C59.5,25.9,59.6,26,59.8,26
			L59.8,26z"/>
		<path class="st1" d="M57.8,40.9c-0.1,0-0.3,0.1-0.3,0.3c0,0.1,0.1,0.2,0.2,0.2c0.1,0,0.2-0.1,0.3-0.2C58,41,57.9,40.9,57.8,40.9
			L57.8,40.9z"/>
		<path class="st1" d="M51.4,39.6c-0.1,0-0.2,0.1-0.2,0.2c0,0.1,0.1,0.3,0.2,0.3c0.1,0,0.2-0.1,0.3-0.2
			C51.6,39.7,51.5,39.6,51.4,39.6L51.4,39.6z"/>
		<path class="st1" d="M58.5,23.8c0-0.1-0.1-0.3-0.2-0.3c-0.1,0-0.2,0.1-0.2,0.2c0,0.1,0.1,0.2,0.2,0.4
			C58.4,23.9,58.5,23.8,58.5,23.8L58.5,23.8z"/>
		<path class="st1" d="M57.9,19.3c0,0.1,0.1,0.2,0.2,0.4c0.1-0.2,0.2-0.3,0.2-0.3c0-0.2-0.1-0.3-0.2-0.3
			C58,19.1,57.9,19.2,57.9,19.3L57.9,19.3z"/>
		<path class="st1" d="M57.8,11.3c0-0.1-0.1-0.2-0.1-0.2c-0.1,0-0.3,0.1-0.3,0.3c0,0.1,0.1,0.2,0.1,0.2
			C57.7,11.6,57.9,11.4,57.8,11.3L57.8,11.3z"/>
		<path class="st1" d="M58.4,30.1c0,0,0.1,0,0.1,0c0-0.1,0-0.2,0-0.3c0-0.1-0.1-0.2-0.2-0.2c-0.1,0-0.2,0.1-0.2,0.3
			C58.2,29.9,58.3,30,58.4,30.1L58.4,30.1z"/>
		<path class="st1" d="M52.2,42c-0.1,0-0.2,0.1-0.2,0.2c0,0.1,0.1,0.2,0.2,0.2c0.1,0,0.1-0.1,0.3-0.1C52.3,42.2,52.3,42,52.2,42
			L52.2,42z"/>
		<path class="st1" d="M51.3,41.4c0,0.2,0,0.3,0,0.4c0,0.1,0.1,0.1,0.2,0.1c0,0,0.2-0.1,0.2-0.1c0-0.1,0-0.2-0.1-0.2
			C51.6,41.5,51.4,41.5,51.3,41.4L51.3,41.4z"/>
		<path class="st1" d="M59.4,36.8c0.1-0.1,0.1-0.2,0.2-0.3c0-0.1-0.1-0.2-0.2-0.2c-0.1,0-0.2,0.1-0.2,0.2
			C59.2,36.6,59.2,36.7,59.4,36.8C59.3,36.8,59.3,36.8,59.4,36.8L59.4,36.8z"/>
		<path class="st1" d="M58.6,36c0,0-0.1,0-0.1,0c-0.1,0.1-0.1,0.2-0.2,0.2c0,0.1,0,0.3,0.1,0.3c0.1,0,0.2-0.1,0.2-0.2
			C58.7,36.2,58.6,36.1,58.6,36L58.6,36z"/>
		<path class="st1" d="M60.3,36.2c-0.1,0-0.2,0.1-0.2,0.2c0,0.1,0.1,0.2,0.1,0.3c0.2,0,0.3-0.1,0.3-0.2
			C60.5,36.3,60.4,36.2,60.3,36.2L60.3,36.2z"/>
		<path class="st1" d="M53.2,42.2c-0.1,0-0.2,0-0.2,0.1c0,0.1,0,0.2,0.1,0.2c0,0.1,0.1,0.1,0.3,0.2c0-0.2,0.1-0.2,0.1-0.3
			C53.3,42.3,53.2,42.2,53.2,42.2L53.2,42.2z"/>
		<path class="st1" d="M60.8,30.8c0-0.1-0.1-0.2-0.2-0.2c-0.1,0-0.2,0.1-0.2,0.2c0,0.1,0.1,0.2,0.2,0.2C60.7,31,60.8,30.9,60.8,30.8
			L60.8,30.8z"/>
		<path class="st1" d="M55.3,19.3c-0.1,0-0.2,0.1-0.2,0.2c0,0.1,0.1,0.2,0.2,0.2c0.2,0,0.2-0.1,0.2-0.3
			C55.5,19.4,55.4,19.3,55.3,19.3L55.3,19.3z"/>
		<path class="st1" d="M56.3,19.8c-0.1,0-0.1,0.1-0.2,0.2c0,0.1,0.1,0.3,0.3,0.3c0.1,0,0.1-0.1,0.2-0.1C56.6,20,56.4,19.8,56.3,19.8
			L56.3,19.8z"/>
		<path class="st1" d="M58.3,31.1c0-0.1,0.1-0.1,0.1-0.2c0-0.1-0.1-0.1-0.1-0.3c-0.1,0.1-0.2,0.2-0.2,0.2c0,0.1,0,0.2,0.1,0.3
			C58.2,31.1,58.3,31.1,58.3,31.1L58.3,31.1z"/>
		<path class="st1" d="M57,41.7c0,0.1,0,0.2,0.2,0.2c0.1,0,0.3-0.1,0.3-0.3c0-0.1-0.1-0.1-0.2-0.2C57.1,41.5,57,41.6,57,41.7
			L57,41.7z"/>
		<path class="st1" d="M54,42.4c-0.1,0.2,0,0.3,0.1,0.4c0.2-0.2,0.2-0.3,0.1-0.4C54.1,42.3,54,42.3,54,42.4L54,42.4z"/>
		<path class="st1" d="M61,11.4c-0.1-0.1-0.2-0.2-0.3-0.2c-0.1,0-0.2,0.1-0.2,0.2c0,0.1,0.1,0.2,0.2,0.2
			C60.8,11.6,60.8,11.5,61,11.4L61,11.4z"/>
		<path class="st1" d="M59.4,12.7c0.1,0,0.2-0.1,0.3-0.2c-0.1-0.1-0.2-0.2-0.3-0.2c-0.1,0-0.2,0.1-0.2,0.2
			C59.2,12.6,59.2,12.7,59.4,12.7L59.4,12.7z"/>
		<path class="st1" d="M58.2,31.7c-0.1,0-0.2,0.1-0.2,0.2c0,0.1,0.1,0.2,0.2,0.2c0.1,0,0.2-0.1,0.3-0.2
			C58.4,31.8,58.3,31.7,58.2,31.7L58.2,31.7z"/>
		<path class="st1" d="M58.2,32.6c-0.1,0-0.2,0.1-0.2,0.2c0,0.1,0.1,0.2,0.2,0.2c0.1,0,0.2-0.1,0.3-0.2
			C58.4,32.7,58.3,32.7,58.2,32.6L58.2,32.6z"/>
		<path class="st1" d="M58.3,25.6c-0.1,0-0.1,0.1-0.1,0.1c-0.1,0.1-0.1,0.2,0,0.3c0,0,0.1,0,0.2,0c0.1-0.1,0.1-0.2,0-0.3
			C58.4,25.6,58.4,25.6,58.3,25.6L58.3,25.6z"/>
		<path class="st1" d="M58.3,28.1c0.1,0,0.1-0.1,0.2-0.2c-0.1-0.1-0.2-0.2-0.2-0.2c-0.1,0-0.2,0.1-0.2,0.2
			C58.1,28,58.1,28.1,58.3,28.1L58.3,28.1z"/>
		<path class="st1" d="M58.4,20.7c0-0.1-0.1-0.1-0.2-0.3c-0.1,0.2-0.2,0.2-0.2,0.3c0,0.1,0.1,0.2,0.2,0.2
			C58.4,20.9,58.4,20.8,58.4,20.7L58.4,20.7z"/>
	</g>
	<path class="st1" d="M42.8,18.4c0-0.2-0.1-0.3-0.3-0.2c-0.1,0-0.1,0.2-0.1,0.2C42.6,18.6,42.7,18.6,42.8,18.4L42.8,18.4z"/>
	<path class="st1" d="M38.6,19.3c0.1,0,0.1-0.1,0.3-0.2c-0.1-0.1-0.2-0.1-0.2-0.2c-0.1,0-0.2,0.1-0.2,0.2
		C38.5,19.2,38.6,19.3,38.6,19.3L38.6,19.3z"/>
	<path class="st1" d="M49.3,34.6c0,0.1,0.1,0.1,0.1,0.2c0.1-0.1,0.2-0.1,0.2-0.2c0-0.1-0.1-0.1-0.1-0.3
		C49.4,34.4,49.3,34.5,49.3,34.6L49.3,34.6z"/>
	<path class="st1" d="M41.2,27.4c0,0.1,0.1,0.1,0.1,0.2c0.1-0.1,0.2-0.1,0.2-0.2c0-0.1-0.1-0.1-0.1-0.3
		C41.3,27.2,41.2,27.3,41.2,27.4L41.2,27.4z"/>
	<path class="st1" d="M45.9,24.8c-0.1-0.1-0.1-0.1-0.2-0.1c-0.1,0-0.1,0.1-0.2,0.1c0.1,0.1,0.1,0.1,0.2,0.2
		C45.8,24.9,45.8,24.9,45.9,24.8L45.9,24.8z"/>
	<path class="st1" d="M40.9,26c-0.1-0.1-0.1-0.1-0.2-0.1c-0.1,0-0.1,0.1-0.2,0.1c0.1,0.1,0.1,0.1,0.2,0.2C40.8,26.1,40.9,26,40.9,26
		L40.9,26z"/>
	<path class="st1" d="M43.9,21.4c-0.1-0.1-0.1-0.1-0.2-0.1c-0.1,0-0.1,0.1-0.2,0.1c0.1,0.1,0.1,0.1,0.2,0.2
		C43.7,21.5,43.8,21.4,43.9,21.4L43.9,21.4z"/>
</g>
</svg>
